<svg width="55" height="55" viewBox="0 0 55 55" fill="none" xmlns="http://www.w3.org/2000/svg">
<g clip-path="url(#clip0_568_8278)">
<path d="M27.5107 1.5C41.8933 1.5 53.5107 13.1175 53.5107 27.5C53.5107 41.8825 41.8933 53.5 27.5107 53.5C13.1282 53.5 1.51074 41.8825 1.51074 27.5C1.51074 13.1175 13.1282 1.5 27.5107 1.5Z" fill="white" stroke="#228D9F" stroke-width="3"/>
<path d="M42.1123 25.7813L34.8935 25.7813H32.917L12.8936 25.7813L7.7373 42.9688L47.2685 42.9688L42.1123 25.7813Z" fill="white"/>
<path d="M44.4287 40.3047L44.6865 41.25L22.3428 41.25L21.999 35.5781L44.4287 40.3047Z" fill="#63B0E5"/>
<path d="M40.3896 27.5L21.4834 27.5L21.9131 33.7734L27.0693 34.8906L43.8271 38.5L40.3896 27.5Z" fill="#FFF4C5"/>
<path d="M20.2949 35.2344L20.6387 41.25L10.3262 41.25L12.7324 33.6875L20.2949 35.2344Z" fill="#54D1AD"/>
<path d="M44.4404 40.3047L43.8389 38.5L27.0811 34.8906L21.9248 33.7734L21.4951 27.5L19.7764 27.5L20.1201 33.3437L13.2451 31.8828L12.7295 33.6875L20.292 35.2344L20.6357 41.25H22.3545L22.0107 35.5781L44.4404 40.3047Z" fill="#FCDD5B"/>
<path d="M19.7842 27.5L20.1279 33.3437L13.2529 31.8828L14.6279 27.5L19.7842 27.5Z" fill="#63B0E5"/>
<path d="M27.5117 8.5918C22.7852 8.5918 18.918 12.6309 18.918 17.6152C18.918 20.2793 20.3789 23.2012 22.0977 25.7793C22.5273 26.3809 22.8711 26.8965 23.3008 27.498C25.0195 29.9043 26.8242 31.7949 27.5117 32.6543C28.1992 31.7949 30.0039 29.8184 31.7227 27.498C32.1523 26.9824 32.4961 26.3809 32.9258 25.7793C34.6445 23.2012 36.1055 20.2793 36.1055 17.6152C36.1055 12.6309 32.2383 8.5918 27.5117 8.5918ZM27.5117 19.7637C26.0508 19.7637 24.9336 18.6465 24.9336 17.1855C24.9336 15.7246 26.0508 14.6074 27.5117 14.6074C28.9727 14.6074 30.0898 15.7246 30.0898 17.1855C30.0898 18.6465 28.9727 19.7637 27.5117 19.7637Z" fill="#006DB7"/>
<path d="M27.5068 12.8906C29.9131 12.8906 31.8037 14.7813 31.8037 17.1875C31.8037 19.5938 29.9131 21.4844 27.5068 21.4844C25.1006 21.4844 23.21 19.5938 23.21 17.1875C23.21 14.7812 25.1006 12.8906 27.5068 12.8906ZM30.085 17.1875C30.085 15.7266 28.9678 14.6094 27.5068 14.6094C26.0459 14.6094 24.9287 15.8125 24.9287 17.1875C24.9287 18.5625 26.0459 19.7656 27.5068 19.7656C28.9678 19.7656 30.085 18.6484 30.085 17.1875Z" fill="#54B9FD"/>
</g>
<defs>
<clipPath id="clip0_568_8278">
<rect width="55" height="55" fill="white"/>
</clipPath>
</defs>
</svg>
