<svg width="35" height="25" viewBox="0 0 35 35" fill="none" xmlns="http://www.w3.org/2000/svg">
<path d="M22.6009 2.15661C22.6009 1.44937 23.3138 0.869568 24.2025 0.869568C25.0911 0.869568 25.804 1.443 25.804 2.15661V7.78265C25.804 8.48988 25.0911 9.06969 24.2025 9.06969C23.3138 9.06969 22.6009 8.49626 22.6009 7.78265V2.15661ZM4.36523 19.0825C4.27409 19.0825 4.19271 18.6907 4.19271 18.2128C4.19271 17.7349 4.26432 17.3463 4.36523 17.3463H8.74024C8.83138 17.3463 8.91276 17.7381 8.91276 18.2128C8.91276 18.6907 8.84115 19.0825 8.74024 19.0825H4.36523ZM11.3346 19.0825C11.2435 19.0825 11.1621 18.6907 11.1621 18.2128C11.1621 17.7349 11.2337 17.3463 11.3346 17.3463H15.7096C15.8008 17.3463 15.8822 17.7381 15.8822 18.2128C15.8822 18.6907 15.8105 19.0825 15.7096 19.0825H11.3346ZM18.3073 19.0825C18.2161 19.0825 18.1348 18.6907 18.1348 18.2128C18.1348 17.7349 18.2064 17.3463 18.3073 17.3463H22.6823C22.7734 17.3463 22.8548 17.7349 22.8548 18.2096C22.4154 18.4772 21.9954 18.7671 21.5918 19.0825H18.3073ZM4.375 24.0618C4.28385 24.0618 4.20247 23.67 4.20247 23.1921C4.20247 22.7143 4.27409 22.3224 4.375 22.3224H8.75C8.84115 22.3224 8.92253 22.7143 8.92253 23.1921C8.92253 23.6732 8.85091 24.0618 8.75 24.0618H4.375ZM11.3444 24.0618C11.2533 24.0618 11.1719 23.67 11.1719 23.1921C11.1719 22.7143 11.2435 22.3224 11.3444 22.3224H15.7194C15.8105 22.3224 15.8919 22.7143 15.8919 23.1921C15.8919 23.6732 15.8203 24.0618 15.7194 24.0618H11.3444ZM4.38151 29.0412C4.29037 29.0412 4.20898 28.6493 4.20898 28.1715C4.20898 27.6904 4.2806 27.3017 4.38151 27.3017H8.75651C8.84766 27.3017 8.92904 27.6936 8.92904 28.1715C8.92904 28.6493 8.85742 29.0412 8.75651 29.0412H4.38151ZM11.3542 29.0412C11.263 29.0412 11.1816 28.6493 11.1816 28.1715C11.1816 27.6904 11.2533 27.3017 11.3542 27.3017H15.7292C15.8203 27.3017 15.9017 27.6936 15.9017 28.1715C15.9017 28.6493 15.8301 29.0412 15.7292 29.0412H11.3542ZM8.20638 2.15661C8.20638 1.44619 8.91927 0.869568 9.80794 0.869568C10.6966 0.869568 11.4095 1.443 11.4095 2.15661V7.78265C11.4095 8.48988 10.6934 9.06969 9.80794 9.06969C8.91927 9.06969 8.20638 8.49626 8.20638 7.78265V2.15661ZM1.76432 13.1698H32.2884V6.69312C32.2884 6.47012 32.1973 6.27579 32.0508 6.13561C31.9043 5.99226 31.696 5.90305 31.4811 5.90305H28.5547C28.0632 5.90305 27.666 5.51121 27.666 5.03334C27.666 4.55548 28.0632 4.16363 28.5547 4.16363H31.4811C32.1973 4.16363 32.8418 4.44717 33.3106 4.90591C33.7826 5.36785 34.069 5.99544 34.069 6.69631V16.9799C33.4863 16.7824 32.8841 16.6231 32.2689 16.5052V14.8996H32.2884H1.76432V31.6758C1.76432 31.8988 1.85547 32.0931 2.00195 32.2333C2.14844 32.3766 2.35677 32.4658 2.57161 32.4658H17.0768C17.2428 33.068 17.4512 33.6573 17.6986 34.2212H2.58789C1.875 34.2212 1.22721 33.9377 0.758464 33.4789C0.289714 33.0202 0 32.3926 0 31.6917V6.69949C0 6.00181 0.289714 5.36785 0.758464 4.9091C1.23047 4.44717 1.87174 4.16682 2.58789 4.16682H5.71289C6.20117 4.16682 6.60156 4.55867 6.60156 5.03653C6.60156 5.51439 6.20117 5.90624 5.71289 5.90624H2.58789C2.36003 5.90624 2.16146 5.99544 2.01823 6.1388C1.87174 6.28216 1.7806 6.48605 1.7806 6.69631V13.1729L1.76432 13.1698ZM13.9746 5.90305C13.4863 5.90305 13.0859 5.51121 13.0859 5.03334C13.0859 4.55548 13.4863 4.16363 13.9746 4.16363H19.9316C20.4232 4.16363 20.8203 4.55548 20.8203 5.03334C20.8203 5.51439 20.4199 5.90305 19.9316 5.90305H13.9746Z" fill="url(#paint0_linear_367_166)"/>
<defs>
<linearGradient id="paint0_linear_367_166" x1="17.0345" y1="0.869568" x2="17.0345" y2="34.2212" gradientUnits="userSpaceOnUse">
<stop stop-color="#007EA8"/>
<stop offset="1" stop-color="#00AD71"/>
</linearGradient>
</defs>
</svg>
