<svg width="863" height="643" viewBox="0 0 863 643" fill="none" xmlns="http://www.w3.org/2000/svg">
<g clip-path="url(#clip0_437_2013)">
<path d="M863 565.069H0V565.501H863V565.069Z" fill="#EBEBEB"/>
<path d="M776.527 592.835H719.362V593.266H776.527V592.835Z" fill="#EBEBEB"/>
<path d="M571.685 597.529H556.687V597.96H571.685V597.529Z" fill="#EBEBEB"/>
<path d="M717.637 576.821H684.515V577.252H717.637V576.821Z" fill="#EBEBEB"/>
<path d="M165.092 579.72H90.5459V580.151H165.092V579.72Z" fill="#EBEBEB"/>
<path d="M191.396 579.72H180.471V580.151H191.396V579.72Z" fill="#EBEBEB"/>
<path d="M388.609 587.002H226.917V587.434H388.609V587.002Z" fill="#EBEBEB"/>
<path d="M409.08 488.104H75.7891C70.3522 488.104 65.9336 483.687 65.9336 478.251V9.85355C65.9336 4.4177 70.3522 0 75.7891 0H409.08C414.517 0 418.935 4.4177 418.935 9.85355V478.251C418.935 483.687 414.517 488.104 409.08 488.104ZM75.7891 0.431416C70.5938 0.431416 66.3651 4.6593 66.3651 9.85355V478.251C66.3651 483.445 70.5938 487.673 75.7891 487.673H409.08C414.275 487.673 418.504 483.445 418.504 478.251V9.85355C418.504 4.6593 414.275 0.431416 409.08 0.431416H75.7891Z" fill="#EBEBEB"/>
<path d="M782.413 488.104H449.122C443.685 488.104 439.267 483.687 439.267 478.251V9.85355C439.267 4.4177 443.685 0 449.122 0H782.413C787.85 0 792.268 4.4177 792.268 9.85355V478.251C792.268 483.687 787.85 488.104 782.413 488.104ZM449.122 0.431416C443.927 0.431416 439.698 4.6593 439.698 9.85355V478.251C439.698 483.445 443.927 487.673 449.122 487.673H782.413C787.608 487.673 791.837 483.445 791.837 478.251V9.85355C791.837 4.6593 787.608 0.431416 782.413 0.431416H449.122Z" fill="#EBEBEB"/>
<path d="M500.005 205.544L737.813 205.544V49.8372L500.005 49.8372V205.544Z" fill="#BBDEF5"/>
<path d="M492.739 205.544L734.413 205.544V49.8372L492.739 49.8372V205.544Z" fill="#BADEF5"/>
<path d="M500.005 236.088L737.813 236.088V205.527L500.005 205.527V236.088Z" fill="#BADEF5"/>
<path d="M480.674 236.088L722.349 236.088V205.527L480.674 205.527V236.088Z" fill="#BADEF5"/>
<path d="M724.265 195.397V60.0012L502.905 60.0012V195.397H724.265Z" fill="#FAFAFA"/>
<path d="M504.199 195.397V60.0012H502.905V195.397H504.199Z" fill="#E6E6E6"/>
<path opacity="0.6" d="M490.34 75.3079H728.165L729.097 63.9358H491.289L490.34 75.3079Z" fill="#91CCF2"/>
<path opacity="0.6" d="M490.34 93.9451H728.165L729.097 82.573H491.289L490.34 93.9451Z" fill="#91CCF2"/>
<path opacity="0.6" d="M490.34 112.582H728.165L729.097 101.228H491.289L490.34 112.582Z" fill="#91CCF2"/>
<path opacity="0.6" d="M490.34 131.22H728.165L729.097 119.865H491.289L490.34 131.22Z" fill="#91CCF2"/>
<path opacity="0.6" d="M490.34 149.874H728.165L729.097 138.502H491.289L490.34 149.874Z" fill="#91CCF2"/>
<path opacity="0.6" d="M490.34 168.511H728.165L729.097 157.139H491.289L490.34 168.511Z" fill="#91CCF2"/>
<path d="M703.673 451.831H653.809V461.667H703.673V451.831Z" fill="#BADEF5"/>
<path d="M559.758 565.069H568.958V338.886H559.758V565.069Z" fill="#E6E6E6"/>
<path d="M527.862 461.65H653.791V451.814H527.862V461.65Z" fill="#F5F5F5"/>
<path d="M703.673 505.62H653.809V515.456H703.673V505.62Z" fill="#BADEF5"/>
<path d="M527.862 515.439H653.791V505.602H527.862V515.439Z" fill="#F5F5F5"/>
<path d="M703.673 344.27H653.809V354.106H703.673V344.27Z" fill="#BADEF5"/>
<path d="M527.862 354.089H653.791V344.253H527.862V354.089Z" fill="#F5F5F5"/>
<path d="M703.673 398.042H653.809V407.878H703.673V398.042Z" fill="#BADEF5"/>
<path d="M527.862 407.878H653.791V398.042H527.862V407.878Z" fill="#F5F5F5"/>
<path d="M685.705 565.069H694.904V338.886H685.705V565.069Z" fill="#BADEF5"/>
<path d="M644.591 565.069H653.791V338.886H644.591V565.069Z" fill="#F5F5F5"/>
<path d="M527.862 565.069H537.062V338.886H527.862V565.069Z" fill="#F5F5F5"/>
<path d="M112.847 565.069H207.052L207.052 382.338H112.847L112.847 565.069Z" fill="#E6E6E6"/>
<path d="M137.994 565.069H112.829V539.84H164.367L137.994 565.069Z" fill="#FAFAFA"/>
<path d="M369.675 565.069H463.88V382.338H369.675V565.069Z" fill="#BADEF5"/>
<path d="M112.847 556.389H391.647V382.338H112.847V556.389Z" fill="#FAFAFA"/>
<path d="M366.482 565.069H391.629V539.84H340.108L366.482 565.069Z" fill="#FAFAFA"/>
<path d="M132.35 490.745L372.126 490.745V447.189H132.35V490.745Z" fill="#A9DDFF"/>
<path d="M132.35 543.619H372.126V500.063H132.35V543.619Z" fill="#A9DDFF"/>
<path d="M326.559 451.848H177.934C173.567 451.848 170.029 448.311 170.029 443.945V443.41H334.447V443.945C334.447 448.311 330.909 451.848 326.542 451.848H326.559Z" fill="#FAFAFA"/>
<path d="M132.35 437.888L372.126 437.888V394.332H132.35V437.888Z" fill="#A9DDFF"/>
<path d="M326.559 398.974H177.934C173.567 398.974 170.029 395.436 170.029 391.07V390.535H334.447V391.07C334.447 395.436 330.909 398.974 326.542 398.974H326.559Z" fill="#FAFAFA"/>
<path d="M326.559 504.705H177.934C173.567 504.705 170.029 501.168 170.029 496.802V496.267H334.447V496.802C334.447 501.168 330.909 504.705 326.542 504.705H326.559Z" fill="#FAFAFA"/>
<path d="M127.844 205.544L365.652 205.544V49.8372L127.844 49.8372L127.844 205.544Z" fill="#407BFF"/>
<path d="M120.595 205.544L362.27 205.544V49.8372L120.595 49.8372L120.595 205.544Z" fill="#BADEF5"/>
<path d="M127.844 236.088L365.652 236.088V205.527L127.844 205.527V236.088Z" fill="#E6E6E6"/>
<path d="M108.496 236.088L350.171 236.088V205.527L108.496 205.527V236.088Z" fill="#A9DDFF"/>
<path d="M352.104 195.397V60.0012L130.744 60.0012V195.397H352.104Z" fill="#FAFAFA"/>
<path d="M132.039 195.397V60.0012H130.745V195.397H132.039Z" fill="#E6E6E6"/>
<path opacity="0.6" d="M118.179 75.3079H355.987L356.919 63.9358H119.111L118.179 75.3079Z" fill="#BADEF5"/>
<path opacity="0.6" d="M118.179 91.1297H355.987L356.919 79.7576H119.111L118.179 91.1297Z" fill="#BADEF5"/>
<path opacity="0.6" d="M118.179 107.371H355.987L356.919 95.9988H119.111L118.179 107.371Z" fill="#BADEF5"/>
<path d="M165.731 376.73H173.946V285.114H165.731V376.73Z" fill="#F5F5F5"/>
<path d="M166.766 376.678H169.096V285.062H166.766V376.678Z" fill="#FAFAFA"/>
<path d="M170.063 376.678H170.978V285.062H170.063V376.678Z" fill="#FAFAFA"/>
<path d="M200.268 382.338H139.409C139.409 378.11 142.844 374.676 147.072 374.676H192.604C196.833 374.676 200.268 378.11 200.268 382.338Z" fill="#F0F0F0"/>
<path d="M155.064 342.009C156.358 342.009 157.428 340.94 157.428 339.645V279.575C157.428 278.281 156.358 277.211 155.064 277.211C153.769 277.211 152.699 278.281 152.699 279.575V339.645C152.699 340.94 153.769 342.009 155.064 342.009Z" fill="#F0F0F0"/>
<path d="M133.022 306.909H206.636L198.162 255.485H141.497L133.022 306.909Z" fill="#9FBDFF"/>
<path d="M431.5 643C616.324 643 766.154 634.254 766.154 623.465C766.154 612.677 616.324 603.931 431.5 603.931C246.675 603.931 96.8457 612.677 96.8457 623.465C96.8457 634.254 246.675 643 431.5 643Z" fill="#F5F5F5"/>
<path d="M179.713 254.382L177.991 254.506L180.284 286.331L182.006 286.207L179.713 254.382Z" fill="#407BFF"/>
<path d="M183.176 302.636L181.454 302.76L182.317 314.74L184.039 314.616L183.176 302.636Z" fill="#407BFF"/>
<path d="M582.888 449.035H213.248C204.894 449.035 197.558 442.202 196.954 433.832L178.797 181.661C178.193 173.308 184.544 166.458 192.898 166.458H562.538C570.892 166.458 578.228 173.291 578.832 181.661L596.989 433.832C597.593 442.184 591.242 449.035 582.888 449.035Z" fill="#407BFF"/>
<path opacity="0.5" d="M584.303 449.035H214.663C206.309 449.035 198.973 442.202 198.369 433.832L180.212 181.661C179.608 173.308 185.959 166.458 194.313 166.458H563.953C572.307 166.458 579.643 173.291 580.247 181.661L598.404 433.832C599.008 442.184 592.657 449.035 584.303 449.035Z" fill="#CCF3FF"/>
<path d="M564.505 174.068H194.865C194.451 174.068 194.037 174.068 193.623 174.119C184.181 174.896 186.097 189.271 195.642 189.271H565.903C575.448 189.271 575.293 174.896 565.731 174.119C565.317 174.085 564.902 174.068 564.488 174.068H564.505Z" fill="#407BFF"/>
<path d="M204.496 181.661C204.634 183.593 203.184 185.146 201.269 185.146C199.353 185.146 197.678 183.593 197.54 181.661C197.402 179.745 198.852 178.175 200.768 178.175C202.684 178.175 204.358 179.728 204.496 181.661Z" fill="#FAFAFA"/>
<path d="M216.355 181.661C216.493 183.593 215.043 185.146 213.127 185.146C211.211 185.146 209.537 183.593 209.399 181.661C209.261 179.745 210.711 178.175 212.626 178.175C214.542 178.175 216.216 179.728 216.355 181.661Z" fill="#FAFAFA"/>
<path d="M228.194 181.661C228.332 183.593 226.883 185.146 224.967 185.146C223.051 185.146 221.377 183.593 221.239 181.661C221.101 179.745 222.55 178.175 224.466 178.175C226.382 178.175 228.056 179.728 228.194 181.661Z" fill="#FAFAFA"/>
<path d="M574.5 423.858H220.842C217.804 423.858 215.146 421.39 214.939 418.353L200.009 210.98C199.785 207.943 202.08 205.475 205.118 205.475H558.776C561.813 205.475 564.471 207.943 564.679 210.98L579.608 418.353C579.833 421.39 577.537 423.858 574.5 423.858Z" fill="white"/>
<path d="M295.392 390.16C296.395 390.16 297.28 389.915 298.048 389.424C298.837 388.933 299.467 388.24 299.936 387.344C300.149 386.981 300.395 386.683 300.672 386.448C300.949 386.192 301.344 386.064 301.856 386.064C302.368 386.064 302.848 386.256 303.296 386.64C303.765 387.024 304 387.515 304 388.112C304 388.304 303.989 388.485 303.968 388.656C303.947 388.827 303.883 389.04 303.776 389.296C303.435 390.107 302.965 390.832 302.368 391.472C301.792 392.091 301.131 392.624 300.384 393.072C299.659 393.499 298.869 393.819 298.016 394.032C297.163 394.267 296.288 394.384 295.392 394.384C294.027 394.384 292.779 394.149 291.648 393.68C290.517 393.211 289.536 392.571 288.704 391.76C287.872 390.949 287.2 389.989 286.688 388.88C286.197 387.771 285.899 386.576 285.792 385.296C285.664 383.568 285.664 381.872 285.792 380.208C285.899 378.928 286.197 377.733 286.688 376.624C287.2 375.515 287.872 374.555 288.704 373.744C289.536 372.912 290.517 372.261 291.648 371.792C292.779 371.323 294.027 371.088 295.392 371.088C296.288 371.088 297.163 371.205 298.016 371.44C298.869 371.653 299.659 371.984 300.384 372.432C301.131 372.859 301.792 373.392 302.368 374.032C302.965 374.651 303.435 375.365 303.776 376.176C303.883 376.432 303.947 376.645 303.968 376.816C303.989 376.987 304 377.168 304 377.36C304 377.957 303.765 378.448 303.296 378.832C302.848 379.216 302.368 379.408 301.856 379.408C301.344 379.408 300.939 379.28 300.64 379.024C300.363 378.747 300.128 378.448 299.936 378.128C299.467 377.232 298.837 376.539 298.048 376.048C297.28 375.557 296.395 375.312 295.392 375.312C294.624 375.312 293.92 375.451 293.28 375.728C292.661 376.005 292.128 376.389 291.68 376.88C291.232 377.349 290.88 377.915 290.624 378.576C290.368 379.237 290.208 379.963 290.144 380.752C290.037 382.117 290.037 383.483 290.144 384.848C290.251 386.448 290.763 387.739 291.68 388.72C292.597 389.68 293.835 390.16 295.392 390.16ZM326.756 391.824C326.756 392.379 326.564 392.891 326.18 393.36C325.796 393.829 325.262 394.064 324.58 394.064C324.132 394.064 323.716 393.947 323.332 393.712C322.969 393.456 322.713 393.115 322.564 392.688L320.804 387.536H311.876L310.116 392.688C309.945 393.115 309.668 393.456 309.284 393.712C308.9 393.968 308.494 394.096 308.068 394.096C307.385 394.096 306.852 393.861 306.468 393.392C306.105 392.923 305.924 392.411 305.924 391.856C305.924 391.579 305.966 391.323 306.052 391.088L312.132 374.192C312.516 373.125 313.081 372.347 313.828 371.856C314.574 371.344 315.417 371.088 316.356 371.088C317.316 371.088 318.169 371.344 318.916 371.856C319.662 372.347 320.228 373.125 320.612 374.192L326.628 391.088C326.713 391.28 326.756 391.525 326.756 391.824ZM313.188 383.632H319.46L316.868 375.984C316.782 375.707 316.612 375.568 316.356 375.568C316.078 375.568 315.897 375.707 315.812 375.984L313.188 383.632ZM334.417 386.16V391.888C334.417 392.507 334.203 393.04 333.777 393.488C333.35 393.936 332.838 394.16 332.241 394.16C331.643 394.16 331.121 393.936 330.673 393.488C330.246 393.04 330.033 392.507 330.033 391.888V374.256C330.033 373.467 330.278 372.795 330.769 372.24C331.259 371.685 331.985 371.408 332.945 371.408H339.505C340.55 371.408 341.542 371.579 342.481 371.92C343.441 372.24 344.273 372.72 344.977 373.36C345.702 373.979 346.267 374.757 346.673 375.696C347.099 376.613 347.313 377.669 347.313 378.864C347.313 379.781 347.195 380.613 346.961 381.36C346.747 382.085 346.449 382.725 346.065 383.28C345.702 383.835 345.265 384.304 344.753 384.688C344.262 385.051 343.729 385.317 343.153 385.488L347.281 390.448C347.665 390.853 347.846 391.365 347.825 391.984C347.825 392.603 347.611 393.115 347.185 393.52C346.694 393.968 346.15 394.181 345.553 394.16C344.955 394.16 344.443 393.947 344.017 393.52L338.929 387.184C338.673 386.864 338.417 386.619 338.161 386.448C337.926 386.256 337.585 386.16 337.137 386.16H334.417ZM339.057 382.128C340.486 382.128 341.478 381.84 342.033 381.264C342.609 380.688 342.897 379.909 342.897 378.928C342.897 377.904 342.598 377.115 342.001 376.56C341.403 375.984 340.475 375.696 339.217 375.696H334.417V382.128H339.057ZM356.688 375.696H351.568C350.949 375.696 350.416 375.493 349.968 375.088C349.541 374.661 349.328 374.149 349.328 373.552C349.328 372.933 349.541 372.421 349.968 372.016C350.416 371.611 350.949 371.408 351.568 371.408H366.192C366.81 371.408 367.333 371.611 367.76 372.016C368.208 372.421 368.432 372.933 368.432 373.552C368.432 374.149 368.208 374.661 367.76 375.088C367.312 375.493 366.789 375.696 366.192 375.696H361.072V391.888C361.072 392.507 360.869 393.04 360.464 393.488C360.058 393.915 359.546 394.128 358.928 394.128C358.309 394.128 357.776 393.915 357.328 393.488C356.901 393.04 356.688 392.507 356.688 391.888V375.696ZM380.696 373.52C380.696 372.901 380.909 372.379 381.336 371.952C381.784 371.504 382.306 371.28 382.904 371.28C383.522 371.28 384.034 371.504 384.44 371.952C384.866 372.379 385.08 372.901 385.08 373.52V391.856C385.08 392.475 384.866 393.008 384.44 393.456C384.034 393.904 383.522 394.128 382.904 394.128C382.285 394.128 381.762 393.904 381.336 393.456C380.909 393.008 380.696 392.475 380.696 391.856V373.52ZM402.389 387.6C402.389 387.173 402.272 386.821 402.037 386.544C401.824 386.245 401.504 385.989 401.077 385.776C400.672 385.563 400.149 385.381 399.509 385.232C398.89 385.083 398.186 384.923 397.397 384.752C394.752 384.219 392.81 383.419 391.573 382.352C390.336 381.285 389.717 379.781 389.717 377.84C389.717 376.816 389.92 375.888 390.325 375.056C390.752 374.224 391.328 373.52 392.053 372.944C392.778 372.347 393.632 371.888 394.613 371.568C395.616 371.248 396.704 371.088 397.877 371.088C399.413 371.088 400.789 371.259 402.005 371.6C403.242 371.92 404.192 372.357 404.853 372.912C405.088 373.125 405.269 373.36 405.397 373.616C405.546 373.872 405.621 374.181 405.621 374.544C405.621 375.163 405.418 375.685 405.013 376.112C404.608 376.517 404.117 376.72 403.541 376.72C403.264 376.72 402.986 376.677 402.709 376.592C402.453 376.507 402.197 376.4 401.941 376.272C401.45 376.037 400.864 375.835 400.181 375.664C399.52 375.472 398.784 375.376 397.973 375.376C396.586 375.376 395.594 375.621 394.997 376.112C394.4 376.603 394.101 377.179 394.101 377.84C394.101 378.203 394.186 378.523 394.357 378.8C394.528 379.056 394.794 379.291 395.157 379.504C395.52 379.696 395.989 379.877 396.565 380.048C397.141 380.197 397.834 380.347 398.645 380.496C400.053 380.752 401.269 381.072 402.293 381.456C403.338 381.819 404.192 382.277 404.853 382.832C405.514 383.365 406.005 384.016 406.325 384.784C406.645 385.531 406.805 386.416 406.805 387.44C406.805 388.421 406.613 389.339 406.229 390.192C405.845 391.024 405.28 391.76 404.533 392.4C403.808 393.019 402.912 393.509 401.845 393.872C400.8 394.213 399.594 394.384 398.229 394.384C396.309 394.384 394.709 394.16 393.429 393.712C392.17 393.264 391.146 392.731 390.357 392.112C389.994 391.835 389.706 391.525 389.493 391.184C389.28 390.843 389.173 390.491 389.173 390.128C389.173 389.488 389.386 388.955 389.813 388.528C390.24 388.101 390.762 387.888 391.381 387.888C391.616 387.888 391.861 387.931 392.117 388.016C392.373 388.08 392.672 388.24 393.013 388.496C393.653 388.965 394.421 389.349 395.317 389.648C396.213 389.947 397.237 390.096 398.389 390.096C399.626 390.096 400.597 389.883 401.301 389.456C402.026 389.008 402.389 388.389 402.389 387.6ZM433.68 371.408C434.278 371.408 434.779 371.611 435.184 372.016C435.59 372.4 435.792 372.891 435.792 373.488C435.792 374.043 435.579 374.533 435.152 374.96C434.726 375.387 434.235 375.6 433.68 375.6H424.336V380.656H433.296C433.851 380.656 434.32 380.848 434.704 381.232C435.088 381.595 435.28 382.064 435.28 382.64C435.28 383.173 435.078 383.643 434.672 384.048C434.288 384.453 433.83 384.656 433.296 384.656H424.336V389.808H433.744C434.022 389.808 434.288 389.872 434.544 390C434.8 390.107 435.024 390.256 435.216 390.448C435.408 390.64 435.558 390.864 435.664 391.12C435.792 391.355 435.856 391.611 435.856 391.888C435.856 392.485 435.654 392.987 435.248 393.392C434.843 393.797 434.342 394 433.744 394H423.12C422.096 394 421.307 393.691 420.752 393.072C420.219 392.453 419.952 391.707 419.952 390.832V374.544C419.952 373.691 420.219 372.955 420.752 372.336C421.307 371.717 422.096 371.408 423.12 371.408H433.68ZM466.221 391.792C466.221 392.432 466.029 392.987 465.645 393.456C465.261 393.925 464.685 394.16 463.917 394.16C463.363 394.16 462.883 394 462.477 393.68C462.072 393.36 461.837 392.923 461.773 392.368L459.917 376.272C459.917 376.144 459.853 376.08 459.725 376.08C459.597 376.08 459.523 376.144 459.501 376.272L456.493 390.736C456.259 391.867 455.8 392.699 455.117 393.232C454.435 393.744 453.677 394 452.845 394C452.013 394 451.256 393.744 450.573 393.232C449.891 392.699 449.432 391.867 449.197 390.736L446.157 376.272C446.115 376.144 446.04 376.08 445.933 376.08C445.805 376.08 445.741 376.155 445.741 376.304L443.917 392.4C443.875 392.933 443.64 393.36 443.213 393.68C442.808 394 442.317 394.16 441.741 394.16C440.973 394.16 440.397 393.925 440.013 393.456C439.651 392.987 439.469 392.443 439.469 391.824C439.469 391.632 439.48 391.483 439.501 391.376L441.773 375.12C441.965 373.776 442.424 372.805 443.149 372.208C443.875 371.589 444.728 371.28 445.709 371.28C446.691 371.28 447.555 371.568 448.301 372.144C449.048 372.72 449.56 373.68 449.837 375.024L452.621 388.976C452.664 389.125 452.749 389.2 452.877 389.2C452.984 389.2 453.059 389.125 453.101 388.976L455.853 375.024C456.131 373.68 456.632 372.72 457.357 372.144C458.104 371.568 458.968 371.28 459.949 371.28C460.931 371.28 461.784 371.589 462.509 372.208C463.235 372.805 463.693 373.776 463.885 375.12L466.189 391.344C466.211 391.451 466.221 391.6 466.221 391.792ZM479.54 382.416C480.884 382.416 481.855 382.117 482.452 381.52C483.071 380.923 483.38 380.101 483.38 379.056C483.38 377.989 483.071 377.168 482.452 376.592C481.855 375.995 480.916 375.696 479.636 375.696H475.028V382.416H479.54ZM475.028 386.64V391.856C475.028 392.475 474.815 393.008 474.388 393.456C473.962 393.904 473.45 394.128 472.852 394.128C472.255 394.128 471.732 393.904 471.284 393.456C470.858 393.008 470.644 392.475 470.644 391.856V374.256C470.644 373.467 470.89 372.795 471.38 372.24C471.871 371.685 472.596 371.408 473.556 371.408H479.924C480.97 371.408 481.962 371.579 482.9 371.92C483.86 372.261 484.703 372.763 485.428 373.424C486.154 374.064 486.719 374.864 487.124 375.824C487.551 376.763 487.764 377.829 487.764 379.024C487.764 380.24 487.562 381.317 487.156 382.256C486.751 383.195 486.186 383.995 485.46 384.656C484.735 385.296 483.871 385.787 482.868 386.128C481.887 386.469 480.81 386.64 479.636 386.64H475.028ZM496.518 375.696H491.398C490.779 375.696 490.246 375.493 489.798 375.088C489.371 374.661 489.158 374.149 489.158 373.552C489.158 372.933 489.371 372.421 489.798 372.016C490.246 371.611 490.779 371.408 491.398 371.408H506.022C506.641 371.408 507.163 371.611 507.59 372.016C508.038 372.421 508.262 372.933 508.262 373.552C508.262 374.149 508.038 374.661 507.59 375.088C507.142 375.493 506.619 375.696 506.022 375.696H500.902V391.888C500.902 392.507 500.699 393.04 500.294 393.488C499.889 393.915 499.377 394.128 498.758 394.128C498.139 394.128 497.606 393.915 497.158 393.488C496.731 393.04 496.518 392.507 496.518 391.888V375.696ZM510.348 373.52C510.348 372.944 510.561 372.432 510.988 371.984C511.436 371.515 511.969 371.28 512.588 371.28C513.313 371.28 513.9 371.568 514.348 372.144L520.556 379.92L526.796 372.144C527.18 371.675 527.681 371.397 528.3 371.312C528.918 371.227 529.473 371.387 529.964 371.792C530.433 372.197 530.7 372.72 530.764 373.36C530.828 373.979 530.657 374.533 530.252 375.024L523.628 382.992C523.35 383.312 523.137 383.589 522.988 383.824C522.838 384.059 522.764 384.389 522.764 384.816V391.888C522.764 392.507 522.55 393.04 522.124 393.488C521.697 393.915 521.174 394.128 520.556 394.128C519.958 394.128 519.436 393.904 518.988 393.456C518.561 393.008 518.348 392.485 518.348 391.888V384.816C518.348 384.389 518.262 384.059 518.092 383.824C517.942 383.568 517.729 383.28 517.452 382.96L510.892 375.024C510.7 374.789 510.561 374.544 510.476 374.288C510.39 374.032 510.348 373.776 510.348 373.52Z" fill="#007FA6"/>
<path d="M409.603 303.68C409.505 303.68 409.407 303.68 409.308 303.655C408.186 303.492 407.408 302.452 407.572 301.33L415.445 247.789C416.583 239.928 423.44 234 431.387 234C432.518 234 433.435 234.917 433.435 236.047C433.435 237.177 432.518 238.094 431.387 238.094C425.464 238.094 420.352 242.516 419.508 248.37L411.635 301.911C411.488 302.935 410.611 303.664 409.612 303.664L409.603 303.68Z" fill="#D1E9FF"/>
<path d="M389.441 338.774C392.481 338.774 394.946 336.311 394.946 333.272C394.946 330.233 392.481 327.769 389.441 327.769C386.4 327.769 383.936 330.233 383.936 333.272C383.936 336.311 386.4 338.774 389.441 338.774Z" fill="#FFD113"/>
<path d="M384.468 325.518L387.122 334.033C387.45 335.098 388.441 335.818 389.555 335.818C390.964 335.818 392.103 334.68 392.103 333.272V325.518H384.468Z" fill="#D1E9FF"/>
<path d="M401.665 327.417H342.048C340.918 327.417 340 326.5 340 325.37C340 324.24 340.918 323.323 342.048 323.323H401.665C404.147 323.323 406.449 322.209 407.989 320.261C409.529 318.312 410.078 315.815 409.497 313.399L406.793 302.116C406.531 301.019 407.211 299.913 408.309 299.643C409.415 299.373 410.521 300.061 410.783 301.158L413.486 312.441C414.363 316.085 413.527 319.859 411.209 322.799C408.89 325.738 405.408 327.425 401.665 327.425V327.417Z" fill="#D1E9FF"/>
<path d="M426.168 303.68H366.298C365.282 303.68 364.414 302.935 364.266 301.928L358.581 262.699C358.499 262.109 358.671 261.512 359.056 261.061C359.449 260.611 360.014 260.357 360.604 260.357H431.854C432.452 260.357 433.017 260.619 433.402 261.061C433.795 261.512 433.967 262.109 433.877 262.699L428.192 301.928C428.044 302.935 427.184 303.68 426.16 303.68H426.168ZM368.067 299.578H424.39L429.486 264.443H362.972L368.067 299.578Z" fill="#D1E9FF"/>
<path d="M380.356 303.68H352.502C351.51 303.68 350.658 302.968 350.486 301.985L343.572 262.756C343.465 262.159 343.629 261.544 344.022 261.086C344.416 260.619 344.989 260.357 345.595 260.357H374.67C375.686 260.357 376.555 261.102 376.702 262.109L382.388 301.338C382.47 301.928 382.298 302.525 381.912 302.976C381.519 303.426 380.954 303.68 380.364 303.68H380.356ZM354.222 299.578H377.988L372.893 264.443H348.037L354.222 299.578Z" fill="#D1E9FF"/>
<path d="M419.041 327.417H359.424C358.294 327.417 357.376 326.5 357.376 325.37C357.376 324.24 358.294 323.323 359.424 323.323H419.041C421.523 323.323 423.825 322.209 425.365 320.261C426.905 318.312 427.454 315.815 426.872 313.399L424.169 302.116C423.907 301.019 424.587 299.913 425.685 299.643C426.791 299.373 427.897 300.061 428.159 301.158L430.862 312.441C431.739 316.085 430.903 319.859 428.585 322.799C426.266 325.738 422.784 327.425 419.041 327.425V327.417Z" fill="#D1E9FF"/>
<path d="M426.169 303.68C426.07 303.68 425.972 303.68 425.874 303.655C424.751 303.492 423.973 302.452 424.137 301.33L432.01 247.789C433.149 239.928 440.006 234 447.952 234C449.083 234 450.001 234.917 450.001 236.047C450.001 237.177 449.083 238.094 447.952 238.094C442.029 238.094 436.917 242.516 436.073 248.37L428.2 301.911C428.053 302.935 427.176 303.664 426.177 303.664L426.169 303.68Z" fill="#D1E9FF"/>
<path d="M370.837 338.774C373.878 338.774 376.343 336.311 376.343 333.272C376.343 330.233 373.878 327.769 370.837 327.769C367.797 327.769 365.332 330.233 365.332 333.272C365.332 336.311 367.797 338.774 370.837 338.774Z" fill="#FFD113"/>
<path d="M365.865 325.518L368.52 334.033C368.847 335.098 369.839 335.818 370.953 335.818C372.362 335.818 373.501 334.68 373.501 333.272V325.518H365.865Z" fill="#D1E9FF"/>
<path d="M407.554 338.774C410.595 338.774 413.059 336.311 413.059 333.272C413.059 330.233 410.595 327.769 407.554 327.769C404.514 327.769 402.049 330.233 402.049 333.272C402.049 336.311 404.514 338.774 407.554 338.774Z" fill="#FFD113"/>
<path d="M402.573 325.518L405.228 334.033C405.555 335.098 406.547 335.818 407.661 335.818C409.07 335.818 410.209 334.68 410.209 333.272V325.518H402.573Z" fill="#D1E9FF"/>
<path d="M352.732 338.774C355.772 338.774 358.237 336.311 358.237 333.272C358.237 330.233 355.772 327.769 352.732 327.769C349.691 327.769 347.227 330.233 347.227 333.272C347.227 336.311 349.691 338.774 352.732 338.774Z" fill="#FFD113"/>
<path d="M347.751 325.518L350.405 334.033C350.733 335.098 351.724 335.818 352.838 335.818C354.248 335.818 355.386 334.68 355.386 333.272V325.518H347.751Z" fill="#D1E9FF"/>
<path d="M429.486 270.764H347.054V274.662H429.486V270.764Z" fill="#D1E9FF"/>
<path d="M429.486 280.066H347.054V283.963H429.486V280.066Z" fill="#D1E9FF"/>
<path d="M429.486 289.375H349.02V293.273H429.486V289.375Z" fill="#D1E9FF"/>
<path d="M372.27 229.904C372.417 232.059 370.796 233.809 368.658 233.809C366.521 233.809 364.623 232.059 364.476 229.904C364.329 227.749 365.95 225.999 368.087 225.999C370.224 225.999 372.122 227.749 372.27 229.904Z" fill="#007FA6"/>
<path d="M397.566 229.904C397.714 232.059 396.092 233.809 393.955 233.809C391.818 233.809 389.92 232.059 389.773 229.904C389.626 227.749 391.247 225.999 393.384 225.999C395.521 225.999 397.419 227.749 397.566 229.904Z" fill="#007FA6"/>
<path d="M404.714 255.195C404.254 255.195 403.867 254.845 403.83 254.366C403.369 248.103 393.549 243.001 381.905 243.001C374.204 243.001 367.276 245.285 363.831 248.988C362.302 250.627 361.602 252.395 361.731 254.256C361.768 254.753 361.399 255.177 360.902 255.214C360.404 255.251 359.98 254.882 359.944 254.385C359.778 252.045 360.662 249.761 362.523 247.772C366.281 243.738 373.706 241.214 381.905 241.214C394.673 241.214 405.083 246.943 405.617 254.238C405.654 254.735 405.286 255.159 404.788 255.195C404.77 255.195 404.751 255.195 404.714 255.195Z" fill="#007FA6"/>
<path d="M357.899 222.001C357.678 222.001 357.457 221.928 357.291 221.762C356.922 221.43 356.904 220.859 357.236 220.509L361.142 216.291C361.473 215.922 362.044 215.904 362.394 216.236C362.763 216.567 362.781 217.138 362.45 217.488L358.544 221.707C358.36 221.891 358.12 222.001 357.88 222.001H357.899Z" fill="#007FA6"/>
<path d="M402.872 222.001C402.651 222.001 402.43 221.928 402.264 221.762L397.75 217.544C397.382 217.212 397.363 216.641 397.713 216.291C398.045 215.922 398.616 215.904 398.966 216.254L403.48 220.472C403.849 220.804 403.867 221.375 403.517 221.725C403.333 221.909 403.112 222.001 402.872 222.001Z" fill="#007FA6"/>
</g>
<defs>
<clipPath id="clip0_437_2013">
<rect width="863" height="643" fill="white"/>
</clipPath>
</defs>
</svg>
