<svg width="52" height="52" viewBox="0 0 52 52" fill="none" xmlns="http://www.w3.org/2000/svg">
<path d="M25.6332 0.470703C39.8094 0.470703 51.2625 11.9238 51.2625 26.1C51.2625 40.2761 39.8094 51.7292 25.6332 51.7292C11.457 51.7292 0.00390625 40.2761 0.00390625 26.1C0.00390625 11.9238 11.457 0.470703 25.6332 0.470703Z" fill="white"/>
<path d="M39.2417 24.4987L32.514 24.4987L30.6719 24.4987L12.0106 24.4987L7.20508 40.5169L44.0472 40.5169L39.2417 24.4987Z" fill="white"/>
<path d="M41.4 38.0333L41.6403 38.9143L20.8165 38.9143L20.4961 33.6283L41.4 38.0333Z" fill="#63B0E5"/>
<path d="M37.6358 26.0997L20.0156 26.0997L20.4161 31.9464L25.2216 32.9876L40.8394 36.3514L37.6358 26.0997Z" fill="#FFF4C5"/>
<path d="M18.9078 33.308L19.2282 38.9144L9.61719 38.9144L11.8598 31.8663L18.9078 33.308Z" fill="#54D1AD"/>
<path d="M41.4112 38.0341L40.8506 36.3522L25.2327 32.9883L20.4272 31.9471L20.0268 26.1005H18.4249L18.7453 31.5467L12.338 30.1851L11.8574 31.867L18.9055 33.3087L19.2259 38.9151H20.8277L20.5073 33.6291L41.4112 38.0341Z" fill="#FCDD5B"/>
<path d="M18.4327 26.0999L18.753 31.5461L12.3457 30.1845L13.6272 26.0999L18.4327 26.0999Z" fill="#63B0E5"/>
<path d="M25.6342 8.47925C21.2291 8.47925 17.625 12.2435 17.625 16.8888C17.625 19.3717 18.9866 22.0948 20.5884 24.4975C20.9888 25.0582 21.3092 25.5387 21.7097 26.0994C23.3115 28.3419 24.9934 30.1039 25.6342 30.9048C26.2749 30.1039 27.9568 28.2618 29.5587 26.0994C29.9591 25.6188 30.2795 25.0582 30.6799 24.4975C32.2818 22.0948 33.6433 19.3717 33.6433 16.8888C33.6433 12.2435 30.0392 8.47925 25.6342 8.47925ZM25.6342 18.8911C24.2726 18.8911 23.2314 17.8499 23.2314 16.4884C23.2314 15.1268 24.2726 14.0856 25.6342 14.0856C26.9957 14.0856 28.0369 15.1268 28.0369 16.4884C28.0369 17.8499 26.9957 18.8911 25.6342 18.8911Z" fill="#006DB7"/>
<path d="M25.6296 12.4838C27.8721 12.4838 29.6342 14.2458 29.6342 16.4883C29.6342 18.7309 27.8721 20.4929 25.6296 20.4929C23.387 20.4929 21.625 18.7309 21.625 16.4883C21.625 14.2458 23.387 12.4838 25.6296 12.4838ZM28.0323 16.4883C28.0323 15.1268 26.9911 14.0856 25.6296 14.0856C24.268 14.0856 23.2268 15.2069 23.2268 16.4883C23.2268 17.7698 24.268 18.8911 25.6296 18.8911C26.9911 18.8911 28.0323 17.8499 28.0323 16.4883Z" fill="#54B9FD"/>
</svg>
