<svg width="383" height="65" viewBox="0 0 383 65" fill="none" xmlns="http://www.w3.org/2000/svg">
<path d="M151.077 5.44766C151.077 7.93428 152.955 10.0561 155.574 10.0561C158.049 10.0561 160 7.93428 160 5.44766C160 2.95201 158.049 1 155.574 1C152.955 1 151.077 2.95201 151.077 5.44766ZM62.9221 5.44413V16.7576C60.4506 15.6253 56.7093 14.5743 53.1062 14.5743C43.448 14.5743 37.9007 20.3729 37.0703 29.7343C36.8479 32.4575 36.8479 37.8136 37.0703 40.4555C37.9007 49.7266 44.0381 56 54.1572 56C61.4227 56 67.4902 52.7459 69.4433 51.3049C70.645 50.4832 70.8728 49.649 70.8728 48.2892V5.44413C70.8728 3.18324 69.1402 1.36835 66.893 1.36835C64.7282 1.36835 62.9221 3.18324 62.9221 5.44413ZM45.0066 39.4641C44.7914 37.1273 44.8613 32.6832 45.0066 30.6372C45.3169 25.1367 48.0126 22.2635 53.7052 22.2635C57.6097 22.2635 61.3528 23.627 62.9221 24.6093V45.5749C61.4227 46.7144 57.5326 48.2892 54.306 48.2892C48.5327 48.2892 45.4658 45.2752 45.0066 39.4641ZM114.382 18.7188C113.264 19.479 112.8 20.2356 112.8 21.8103V51.4566C112.8 53.7229 114.676 55.5395 116.782 55.5395C119.022 55.5395 120.754 53.7229 120.754 51.4566V24.3872C122.463 23.3254 125.993 22.2635 129.657 22.2635C134.311 22.2635 138.365 24.8351 138.365 30.872V51.4566C138.365 53.7229 140.23 55.5395 142.328 55.5395C144.658 55.5395 146.305 53.7229 146.305 51.4566V30.4909C146.305 20.3007 140.754 14.5743 129.892 14.5743C122.026 14.5743 116.552 17.0647 114.382 18.7188ZM80.5219 16.828C78.5006 17.7399 77.8926 19.2479 77.8926 20.5354C77.8926 22.8722 80.0735 24.6094 83.37 23.5494C85.4702 22.7945 88.469 21.8915 91.5395 21.8915C97.3756 21.8915 99.8561 24.0802 99.8561 29.2088V31.6936C96.4053 30.872 93.8496 30.4223 90.3343 30.4223C79.8476 30.4223 75.1234 36.3833 75.1234 42.942C75.1234 50.3369 80.2134 56 90.4813 56C98.2778 56 103.978 53.1955 106.08 51.7689C107.199 51.0087 107.496 50.1889 107.496 48.8255V29.2088C107.496 19.0203 101.574 14.5743 91.9843 14.5743C87.4252 14.5743 82.6975 15.7716 80.5219 16.828ZM82.9181 42.6478C82.9181 39.0217 86.211 36.9774 90.7827 36.9774C94.1617 36.9774 96.5578 37.4343 99.8561 38.2577V46.6422C99.101 47.2363 96.3372 48.9808 91.1611 48.9808C85.8433 48.9808 82.9181 46.7145 82.9181 42.6478ZM5.37698 16.828C3.35747 17.7399 2.74767 19.2479 2.74767 20.5354C2.74767 22.8722 4.92501 24.6094 8.22509 23.5494C10.3235 22.7945 13.3277 21.8915 16.391 21.8915C22.2415 21.8915 24.7111 24.0802 24.7111 29.2088V31.6936C21.2604 30.872 18.7154 30.4223 15.1929 30.4223C5.05952 30.4223 0.310279 35.9897 0 42.2758V43.6608C0.32104 50.6963 5.40926 56 15.3382 56C23.1418 56 28.8291 53.1955 30.9364 51.7689C32.0574 51.0087 32.3533 50.1889 32.3533 48.8255V29.2088C32.3533 19.0203 26.4311 14.5743 16.843 14.5743C12.2713 14.5743 7.55431 15.7716 5.37698 16.828ZM7.7803 42.6478C7.7803 39.0217 11.0714 36.9774 15.6431 36.9774C19.0131 36.9774 21.4182 37.4343 24.7111 38.2577V46.6422C23.965 47.2363 21.1833 48.9808 16.0144 48.9808C10.6984 48.9808 7.7803 46.7145 7.7803 42.6478ZM151.601 19.3327V51.6173C151.601 53.8818 153.477 55.7002 155.574 55.7002C157.819 55.7002 159.555 53.8818 159.555 51.6173V19.3327C159.555 17.0718 157.749 15.2569 155.574 15.2569C153.325 15.2569 151.601 17.0718 151.601 19.3327Z" fill="url(#paint0_linear_59_239)"/>
<path d="M217.549 40.99C219.269 41.3 220.739 41.69 221.959 42.14C223.179 42.6 224.189 43.14 224.989 43.78C225.779 44.42 226.359 45.17 226.729 46.02C227.099 46.88 227.279 47.88 227.279 49.03C227.279 50.18 227.049 51.29 226.599 52.31C226.139 53.32 225.479 54.2 224.589 54.93C223.709 55.66 222.629 56.23 221.369 56.65C220.109 57.07 218.669 57.27 217.059 57.27C214.849 57.27 212.989 56.99 211.479 56.44C209.969 55.89 208.679 55.22 207.619 54.45C206.889 53.94 206.529 53.33 206.529 52.63C206.529 52.01 206.739 51.49 207.149 51.09C207.559 50.69 208.069 50.48 208.669 50.48C208.879 50.48 209.109 50.52 209.349 50.6C209.599 50.68 209.879 50.83 210.189 51.07C211.069 51.69 212.059 52.22 213.159 52.65C214.249 53.08 215.619 53.29 217.259 53.29C219.079 53.29 220.509 52.92 221.539 52.18C222.569 51.44 223.079 50.4 223.079 49.07C223.079 48.5 222.959 48.01 222.709 47.6C222.459 47.2 222.069 46.84 221.539 46.52C221.009 46.2 220.319 45.93 219.469 45.68C218.619 45.43 217.609 45.19 216.439 44.96C213.259 44.34 210.919 43.42 209.409 42.2C207.899 40.98 207.149 39.26 207.149 37.02C207.149 35.79 207.389 34.69 207.869 33.7C208.349 32.71 209.009 31.87 209.859 31.18C210.709 30.49 211.719 29.96 212.899 29.58C214.079 29.2 215.379 29.01 216.779 29.01C218.519 29.01 220.109 29.22 221.539 29.63C222.969 30.05 224.089 30.59 224.899 31.27C225.339 31.69 225.559 32.23 225.559 32.91C225.559 33.46 225.379 33.92 225.009 34.3C224.639 34.68 224.189 34.87 223.639 34.87C223.349 34.87 223.079 34.83 222.819 34.73C222.559 34.64 222.309 34.53 222.079 34.4C221.399 34.04 220.629 33.71 219.779 33.42C218.919 33.13 217.919 32.99 216.769 32.99C215.779 32.99 214.939 33.1 214.249 33.32C213.559 33.54 212.999 33.83 212.569 34.2C212.139 34.57 211.829 34.99 211.629 35.47C211.429 35.95 211.339 36.45 211.339 36.97C211.339 37.52 211.439 37.99 211.649 38.39C211.859 38.79 212.209 39.15 212.699 39.46C213.189 39.77 213.839 40.04 214.629 40.28C215.419 40.51 216.389 40.75 217.539 40.98L217.549 40.99Z" fill="#58595B"/>
<path d="M248.66 49.3001C248.45 51.7501 247.61 53.6801 246.14 55.1001C244.67 56.5201 242.63 57.2301 240.03 57.2301C239.14 57.2301 238.27 57.1101 237.4 56.8601C236.53 56.6101 235.78 56.3501 235.15 56.0601V62.4201C235.15 63.0201 234.95 63.5201 234.54 63.9201C234.14 64.3201 233.65 64.5301 233.08 64.5301C232.51 64.5301 231.99 64.3301 231.6 63.9201C231.21 63.5201 231.02 63.0201 231.02 62.4201V39.5101C231.02 39.2501 231.06 39.0401 231.14 38.8701C231.22 38.7001 231.39 38.5301 231.65 38.3401C231.91 38.1601 232.31 37.9201 232.84 37.6201C233.37 37.3201 234 37.0401 234.71 36.7801C235.43 36.5201 236.22 36.2901 237.09 36.1001C237.96 35.9001 238.89 35.8101 239.88 35.8101C241.18 35.8101 242.35 36.0001 243.39 36.3801C244.43 36.7601 245.32 37.3001 246.07 38.0001C246.81 38.7001 247.4 39.5501 247.85 40.5401C248.29 41.5301 248.56 42.6201 248.67 43.8201C248.7 44.1601 248.71 44.5701 248.73 45.0501C248.74 45.5301 248.75 46.0301 248.75 46.5501C248.75 47.0701 248.75 47.5801 248.73 48.0701C248.72 48.5601 248.7 48.9801 248.67 49.3201L248.66 49.3001ZM244.52 44.3401C244.39 42.8601 243.94 41.7201 243.17 40.9401C242.4 40.1601 241.28 39.7701 239.79 39.7701C239.35 39.7701 238.9 39.8201 238.44 39.9101C237.98 40.0001 237.54 40.1201 237.11 40.2601C236.68 40.4001 236.29 40.5601 235.94 40.7301C235.59 40.9001 235.32 41.0601 235.14 41.2201V51.9501C235.51 52.2101 236.12 52.4901 236.98 52.7901C237.84 53.0901 238.75 53.2401 239.71 53.2401C241.3 53.2401 242.47 52.8601 243.22 52.1101C243.97 51.3601 244.4 50.2801 244.51 48.8701C244.54 48.6101 244.55 48.2901 244.55 47.8901V45.4101C244.55 45.0101 244.54 44.6501 244.51 44.3401H244.52Z" fill="#58595B"/>
<path d="M261.649 35.8C262.899 35.8 264.059 35.99 265.129 36.37C266.199 36.75 267.129 37.2801 267.929 37.9701C268.729 38.6601 269.359 39.4901 269.849 40.4501C270.329 41.4101 270.609 42.4801 270.689 43.6501C270.719 44.0401 270.729 44.48 270.749 44.96C270.769 45.44 270.769 45.9301 270.769 46.4201C270.769 46.9101 270.769 47.4101 270.749 47.9001C270.739 48.4001 270.719 48.84 270.689 49.23C270.609 50.38 270.329 51.4401 269.849 52.4101C269.369 53.3901 268.729 54.23 267.929 54.95C267.139 55.67 266.199 56.23 265.129 56.63C264.059 57.03 262.899 57.24 261.649 57.24C260.399 57.24 259.279 57.04 258.209 56.63C257.139 56.23 256.209 55.67 255.419 54.95C254.619 54.24 253.979 53.3901 253.479 52.4101C252.979 51.4301 252.699 50.37 252.619 49.23C252.589 48.84 252.579 48.4001 252.559 47.9001C252.549 47.4101 252.539 46.9101 252.539 46.4201C252.539 45.9301 252.539 45.44 252.559 44.96C252.569 44.48 252.589 44.0401 252.619 43.6501C252.699 42.4801 252.989 41.4101 253.479 40.4501C253.979 39.4901 254.619 38.6601 255.419 37.9701C256.209 37.2801 257.149 36.75 258.209 36.37C259.279 35.99 260.429 35.8 261.649 35.8ZM261.629 39.78C260.169 39.78 259.019 40.1901 258.179 41.0101C257.329 41.8301 256.859 42.89 256.749 44.19C256.719 44.5 256.709 44.8501 256.689 45.2401C256.679 45.6301 256.669 46.0301 256.669 46.4501C256.669 46.8701 256.669 47.2801 256.689 47.68C256.699 48.08 256.719 48.4301 256.749 48.7201C256.879 50.1001 257.369 51.2 258.229 52.02C259.089 52.84 260.219 53.25 261.629 53.25C263.039 53.25 264.169 52.84 265.049 52.02C265.919 51.2 266.419 50.1001 266.549 48.7201C266.579 48.4301 266.589 48.09 266.589 47.68V46.4501C266.589 46.0301 266.589 45.6301 266.569 45.2401C266.559 44.8501 266.549 44.5 266.549 44.19C266.469 42.89 265.999 41.8301 265.139 41.0101C264.279 40.1901 263.109 39.78 261.629 39.78Z" fill="#58595B"/>
<path d="M285.12 36.22C285.72 36.4 286.14 36.66 286.37 36.98C286.6 37.31 286.72 37.7 286.72 38.17C286.72 38.61 286.56 39.05 286.25 39.48C285.94 39.91 285.44 40.12 284.77 40.12C284.41 40.12 283.99 40.06 283.52 39.92C283.05 39.79 282.49 39.74 281.84 39.76C280.93 39.79 280.25 40.04 279.81 40.52C279.37 41 279.15 41.79 279.15 42.88V54.9C279.15 55.5 278.95 55.99 278.55 56.38C278.15 56.77 277.64 56.97 277.05 56.97C276.5 56.97 276.03 56.77 275.63 56.38C275.23 55.99 275.02 55.5 275.02 54.9V42.21C275.02 40.23 275.58 38.66 276.7 37.51C277.82 36.35 279.45 35.77 281.58 35.77C282.26 35.77 282.91 35.81 283.55 35.89C284.19 35.97 284.71 36.07 285.13 36.2L285.12 36.22Z" fill="#58595B"/>
<path d="M300.629 56.48C300.029 56.74 299.339 56.93 298.559 57.05C297.779 57.17 297.009 57.23 296.259 57.23C295.139 57.23 294.179 57.05 293.369 56.68C292.559 56.32 291.889 55.82 291.359 55.2C290.819 54.58 290.429 53.83 290.169 52.98C289.909 52.12 289.779 51.2 289.779 50.21V33.89C289.779 33.29 289.979 32.79 290.369 32.39C290.759 31.99 291.249 31.78 291.849 31.78C292.449 31.78 292.909 31.98 293.309 32.39C293.709 32.79 293.919 33.29 293.919 33.89V36.86H299.309C299.829 36.86 300.289 37.03 300.679 37.39C301.069 37.74 301.259 38.18 301.259 38.7C301.259 39.22 301.059 39.66 300.679 40.01C300.289 40.36 299.829 40.54 299.309 40.54H293.919V50.26C293.919 51.25 294.139 52.01 294.579 52.54C295.019 53.07 295.719 53.34 296.689 53.34C297.209 53.34 297.699 53.28 298.149 53.15C298.599 53.02 299.049 52.89 299.499 52.76C299.889 52.66 300.249 52.64 300.569 52.72C300.889 52.8 301.159 52.92 301.369 53.09C301.579 53.26 301.739 53.48 301.859 53.75C301.979 54.02 302.039 54.3 302.039 54.59C302.039 54.98 301.939 55.34 301.729 55.68C301.519 56.02 301.159 56.29 300.639 56.5L300.629 56.48Z" fill="#58595B"/>
<path d="M320.519 50.79C320.519 51.78 320.319 52.67 319.929 53.46C319.539 54.25 318.989 54.93 318.289 55.49C317.589 56.05 316.749 56.48 315.789 56.78C314.829 57.08 313.789 57.23 312.669 57.23C311.029 57.23 309.629 57.03 308.459 56.62C307.289 56.22 306.299 55.68 305.489 55C305.099 54.66 304.869 54.23 304.789 53.71C304.709 53.19 304.819 52.73 305.099 52.34C305.409 51.9 305.809 51.64 306.309 51.56C306.799 51.48 307.309 51.61 307.829 51.95C308.449 52.39 309.139 52.76 309.899 53.04C310.659 53.33 311.639 53.47 312.869 53.47C314.099 53.47 314.969 53.23 315.559 52.75C316.159 52.27 316.459 51.65 316.459 50.9C316.459 50.33 316.259 49.86 315.849 49.49C315.449 49.13 314.749 48.83 313.759 48.59C313.419 48.51 313.149 48.45 312.959 48.41C312.759 48.37 312.579 48.33 312.419 48.29C312.249 48.25 312.049 48.21 311.829 48.15C311.609 48.1 311.309 48.02 310.949 47.92C309.229 47.48 307.859 46.79 306.829 45.85C305.799 44.91 305.289 43.65 305.289 42.06C305.289 41.1 305.489 40.23 305.879 39.44C306.269 38.66 306.809 38 307.499 37.45C308.189 36.9 308.999 36.49 309.939 36.2C310.879 35.91 311.889 35.77 312.979 35.77C314.069 35.77 315.229 35.94 316.279 36.28C317.329 36.62 318.199 37.06 318.879 37.61C319.319 37.98 319.539 38.42 319.519 38.96C319.509 39.49 319.359 39.93 319.069 40.27C318.759 40.64 318.359 40.84 317.859 40.88C317.359 40.92 316.869 40.81 316.379 40.55C315.259 39.9 314.059 39.57 312.789 39.57C310.449 39.57 309.279 40.38 309.279 41.99C309.279 42.51 309.479 42.94 309.859 43.28C310.249 43.62 310.949 43.92 311.969 44.18L315.009 44.88C318.679 45.79 320.509 47.76 320.509 50.77L320.519 50.79Z" fill="#58595B"/>
<path d="M326.37 29C326.94 29 327.43 29.2 327.83 29.6C328.23 30 328.44 30.51 328.44 31.1V54.87C328.44 55.47 328.24 55.97 327.85 56.37C327.46 56.77 326.97 56.98 326.37 56.98C325.83 56.98 325.34 56.78 324.93 56.37C324.51 55.97 324.31 55.47 324.31 54.87V31.1C324.31 30.5 324.51 30 324.9 29.6C325.29 29.2 325.78 29 326.38 29H326.37Z" fill="#58595B"/>
<path d="M338.049 30.9899C338.049 31.6399 337.829 32.1999 337.389 32.6699C336.949 33.1399 336.399 33.3699 335.749 33.3699C335.099 33.3699 334.509 33.1399 334.069 32.6699C333.629 32.1999 333.409 31.6399 333.409 30.9899C333.409 30.3399 333.629 29.7899 334.069 29.3499C334.509 28.9099 335.069 28.6899 335.749 28.6899C336.429 28.6899 336.949 28.9099 337.389 29.3499C337.829 29.7899 338.049 30.3399 338.049 30.9899ZM335.749 36.0599C336.319 36.0599 336.809 36.2599 337.209 36.6699C337.609 37.0699 337.819 37.5699 337.819 38.1699V54.8799C337.819 55.4799 337.619 55.9799 337.229 56.3799C336.839 56.7799 336.349 56.9899 335.749 56.9899C335.209 56.9899 334.719 56.7899 334.309 56.3799C333.889 55.9799 333.689 55.4799 333.689 54.8799V38.1699C333.689 37.5699 333.889 37.0699 334.279 36.6699C334.669 36.2699 335.159 36.0599 335.759 36.0599H335.749Z" fill="#58595B"/>
<path d="M360.429 54.88C360.429 55.48 360.229 55.98 359.839 56.38C359.449 56.78 358.959 56.99 358.359 56.99C357.819 56.99 357.329 56.79 356.919 56.38C356.499 55.98 356.299 55.48 356.299 54.88V44.22C356.299 43.44 356.179 42.77 355.929 42.21C355.679 41.65 355.349 41.19 354.939 40.82C354.519 40.46 354.039 40.19 353.489 40.02C352.939 39.85 352.369 39.77 351.769 39.77C350.809 39.77 349.899 39.88 349.059 40.1C348.209 40.32 347.569 40.58 347.129 40.86V54.87C347.129 55.47 346.929 55.97 346.539 56.37C346.149 56.77 345.659 56.98 345.059 56.98C344.509 56.98 344.029 56.78 343.609 56.37C343.189 55.97 342.989 55.47 342.989 54.87V39.53C342.989 39.11 343.049 38.79 343.189 38.57C343.319 38.35 343.529 38.13 343.809 37.93C344.099 37.72 344.489 37.49 344.979 37.25C345.469 37 346.059 36.77 346.739 36.55C347.419 36.33 348.189 36.15 349.059 36C349.929 35.86 350.869 35.79 351.889 35.79C354.729 35.79 356.859 36.5 358.289 37.92C359.719 39.34 360.439 41.37 360.439 44.03V54.88H360.429Z" fill="#58595B"/>
<path d="M382.289 45.63C382.289 46.36 382.089 46.96 381.689 47.42C381.289 47.89 380.649 48.12 379.799 48.12H368.749V48.59C368.749 50.15 369.219 51.35 370.179 52.18C371.129 53.01 372.369 53.43 373.909 53.43C374.609 53.43 375.349 53.35 376.119 53.18C376.889 53.01 377.649 52.78 378.399 52.5C378.819 52.34 379.199 52.29 379.549 52.32C379.899 52.36 380.199 52.46 380.449 52.63C380.699 52.8 380.889 53.01 381.019 53.27C381.149 53.53 381.219 53.8 381.219 54.09C381.219 54.4 381.149 54.71 381.019 55.01C380.889 55.31 380.599 55.59 380.159 55.85C379.819 56.06 379.409 56.25 378.929 56.42C378.449 56.59 377.929 56.73 377.369 56.85C376.809 56.97 376.229 57.06 375.609 57.12C374.999 57.18 374.399 57.22 373.829 57.22C372.479 57.22 371.259 57.01 370.179 56.6C369.099 56.18 368.169 55.6 367.389 54.86C366.609 54.12 365.989 53.23 365.539 52.21C365.079 51.18 364.819 50.06 364.739 48.83C364.709 48.47 364.699 48.06 364.679 47.62C364.669 47.18 364.659 46.74 364.659 46.31C364.659 45.88 364.659 45.46 364.679 45.06C364.689 44.66 364.709 44.3 364.739 43.99C364.839 42.74 365.129 41.61 365.599 40.59C366.069 39.58 366.689 38.71 367.469 37.99C368.249 37.27 369.169 36.73 370.219 36.35C371.269 35.97 372.409 35.78 373.629 35.78C374.929 35.78 376.119 35.99 377.179 36.4C378.239 36.81 379.159 37.41 379.909 38.18C380.669 38.95 381.249 39.87 381.669 40.95C382.089 42.03 382.289 43.22 382.289 44.52V45.61V45.63ZM377.799 44.85C378.059 44.85 378.219 44.69 378.269 44.38C378.369 42.9 377.999 41.71 377.159 40.81C376.309 39.91 375.139 39.46 373.629 39.46C371.959 39.46 370.719 39.95 369.899 40.92C369.079 41.9 368.689 43.2 368.749 44.84H377.809L377.799 44.85Z" fill="#58595B"/>
<path d="M180 1V56.97" stroke="#58595B" stroke-width="1.96" stroke-linecap="round" stroke-linejoin="round"/>
<defs>
<linearGradient id="paint0_linear_59_239" x1="-75.0148" y1="42.1532" x2="223.246" y2="16.2366" gradientUnits="userSpaceOnUse">
<stop stop-color="#00B16B"/>
<stop offset="0.350006" stop-color="#006DB6"/>
<stop offset="0.649994" stop-color="#8E278F"/>
<stop offset="0.899994" stop-color="#F04C23"/>
<stop offset="1" stop-color="#F04C23"/>
</linearGradient>
</defs>
</svg>
