  <svg
              width="584"
              height="572"
              viewBox="0 0 584 572"
              fill="none"
              xmlns="http://www.w3.org/2000/svg"
            >
              <path
                d="M122.403 39.8364V36.4375L129.046 38.9867H134.265L135.688 42.3856L142.805 43.6603H145.652L147.55 48.7587V53.4322L148.974 55.9814L150.872 55.1317L155.142 58.5306V61.0798H157.04L158.938 63.629L163.682 66.1782L161.784 71.2767H165.58L168.902 72.9761L173.646 77.6497V79.3491L169.376 77.6497L166.529 74.2507L164.157 75.1005H161.31L160.835 76.7999L157.989 77.6497L156.091 79.3491L152.295 82.3232L150.397 81.0486V89.546H147.076L144.703 92.0952H140.908L139.01 94.2195L137.112 92.0952H129.046L126.673 90.8206V85.7222H121.454V84.0227L118.607 79.774L114.811 76.7999L111.965 73.8259L115.286 71.2767V67.028L111.965 66.1782V61.9296L115.286 60.2301L116.709 57.6809H110.541L110.067 54.2819L111.965 53.4322V50.4581H107.694V45.7846H111.965L112.914 43.2354H114.811L116.709 39.8364H122.403Z"
                fill="url(#paint0_linear_37_4566)"
                fill-opacity="0.6"
                stroke="#4A9BD4"
                stroke-width="1.33333"
              />
              <path
                d="M185.982 81.7349L186.918 80.4418L190.194 81.7349L192.533 85.1829V87.338H194.873H199.084L203.295 93.3721V95.9581L204.231 98.9752L207.039 101.13L208.443 103.285L207.039 106.733L209.378 109.75L207.039 114.491L209.846 115.784L211.25 117.078H209.378L208.443 118.802H205.167L200.02 117.078L198.148 118.371H194.873L191.597 120.526L189.258 123.543L187.854 126.991L188.322 129.577L189.258 132.163L188.322 133.456L186.918 134.318L185.982 136.042L181.771 135.18H179.899L177.092 132.163L176.156 128.715L170.541 125.698L167.265 123.543V120.095L164.458 116.215H156.503V110.612L153.695 106.733L153.227 104.578L149.952 101.13H147.612V95.9581H149.952L151.824 92.5101L150.888 89.924V80.8728L153.227 82.5969L158.843 77.8558L161.182 76.9938L162.118 75.2697H164.458L166.797 74.4077L169.605 77.8558L173.816 79.5798L177.092 81.7349H185.982Z"
                fill="url(#paint1_linear_37_4566)"
                fill-opacity="0.6"
                stroke="#4A9BD4"
                stroke-width="1.33333"
              />
              <path
                d="M144.699 92.3936L146.594 89.8154H150.384L151.332 92.8233L149.437 95.8311H147.068V101.417H149.437L153.227 104.855V107.003L156.069 110.441V116.027H164.123L166.966 119.894L167.439 123.761L170.282 125.48L167.913 126.769L168.861 130.636L170.756 134.503V136.222H167.913L165.071 140.519L161.754 142.238L159.385 141.378L157.017 143.956V146.535L155.122 148.253L152.753 149.113H142.33L139.488 150.402L138.067 152.55L136.645 149.972L135.224 146.535L132.855 146.105L130.013 145.245H125.275L123.38 146.105L120.538 145.245H114.379L110.589 142.238V135.363L115.326 129.777L124.328 122.042V113.878L121.959 108.292L127.644 101.847L132.382 99.2686L137.593 97.1202L139.014 94.9717L140.909 92.3936H144.699Z"
                fill="url(#paint2_linear_37_4566)"
                fill-opacity="0.6"
                stroke="#4A9BD4"
                stroke-width="1.33333"
              />
              <path
                d="M189.215 137.293L186.373 135.592V133.766L188.268 133.041L189.215 131.765L187.794 129.214V126.663L189.215 123.261L192.058 120.284L195.374 118.158H199.163L200.111 116.882L205.796 118.158H208.638L210.059 116.882H211.48L215.744 113.48L216.691 114.756L217.639 118.158L222.376 121.985L225.218 124.111L232.324 124.536L234.219 124.962L235.64 127.938L237.535 129.214L239.43 132.616L247.009 134.317L248.904 135.592L251.746 138.569V139.845L249.852 142.396L247.009 143.247L246.062 145.798L243.219 147.499L241.325 150.05V152.177V154.303L239.43 156.854V160.681L238.482 162.808L235.64 164.934V168.336L234.219 169.611L231.85 168.336H228.06L224.744 166.209L223.323 167.485L220.955 166.209L217.639 162.808H214.796L211.48 160.681L210.059 158.555L211.48 156.004L208.638 154.303L204.848 151.326L202.953 149.2L201.532 145.798L197.269 144.522V149.2L195.374 151.326H191.11L189.215 149.2L190.163 144.522V143.247L191.11 140.695V138.569L189.215 137.293Z"
                fill="url(#paint3_linear_37_4566)"
                fill-opacity="0.6"
                stroke="#4A9BD4"
                stroke-width="1.33333"
              />
              <path
                d="M168.269 126.442L170.637 125.586L175.848 128.58L177.743 132.001L180.112 134.994L182.48 134.567L185.796 135.849V137.988L183.428 139.698L182.48 141.409L179.638 143.974L178.217 145.257L177.743 148.251L175.848 149.961L174.901 152.527V155.52L176.796 157.231V163.645L175.848 166.211L178.217 168.349L180.112 170.059V175.191L182.48 177.329L184.375 182.033V184.599L183.428 188.02L182.007 189.303L180.112 188.875L177.743 190.158L173.953 192.724L171.111 190.158V184.599L169.69 181.605L168.269 182.033L167.321 184.599L165.426 185.882L161.163 181.605V184.599L157.373 185.882L155.952 190.158L153.11 188.02V181.605L149.794 177.757L147.425 174.336L144.583 170.915V167.494L142.688 165.356L141.74 161.935V159.369H135.582L130.845 157.231L128.95 155.52V157.658H125.634L124.213 155.52V152.527L122.791 148.251L120.423 145.257L124.213 146.112L125.634 145.257H130.371L133.213 146.112L135.582 146.54L137.003 150.389L138.424 152.527L139.845 150.389L142.688 149.106H153.11L155.952 148.251L157.373 146.54V143.974L159.742 141.409L162.11 142.264L165.426 140.553L168.269 136.277H171.111V134.567L169.216 130.718L168.269 126.442Z"
                fill="url(#paint4_linear_37_4566)"
                fill-opacity="0.6"
                stroke="#4A9BD4"
                stroke-width="1.33333"
              />
              <path
                d="M135.64 160.186H142.265V162.326V166.176L144.631 168.315V171.738L147.47 174.305L148.89 177.3L153.149 181.578V188.851L156.461 190.563L157.881 186.284L161.193 185.429V181.578L165.452 186.284L167.345 185.429L168.291 182.434H169.711L170.657 185.429V190.563L173.496 193.13L177.282 191.418L180.594 193.985V196.98L183.433 200.403V203.398L185.326 205.109L182.014 207.676L180.594 210.671L182.014 211.526L191.004 207.676H192.424L196.21 208.959V211.526L192.424 214.521H191.004L189.112 217.088H187.219L183.433 218.8H179.174L177.282 222.222H175.389L173.496 224.361L168.291 226.501L166.398 229.068L164.032 230.351L163.086 233.774L164.032 236.341L165.452 238.052L169.237 239.763L177.282 239.336L179.174 238.052H182.014V244.897H173.496L170.657 245.325V247.464L169.711 250.031L170.657 253.026H175.389L173.969 255.165L172.077 258.16H170.657V264.578L166.398 263.722L164.032 262.011H155.515V263.722V266.289L152.675 267.573V269.712H144.158V267.573L148.89 266.289V257.305H152.675L148.89 253.026L145.578 251.743H140.372L137.06 250.031L138.006 248.32L136.114 246.609L133.274 249.176L130.908 250.031L129.489 256.021V262.866L132.328 265.433V274.418L130.908 276.557L126.176 277.841L124.284 279.552V280.835L126.176 282.119H128.069V284.258L124.284 286.825H118.605V285.114H117.186L114.82 282.119L111.981 280.835L108.668 277.841L102.517 274.418L100.624 270.995V267.573H97.7847L94.9455 265.433L96.3651 262.866V260.299L94.9455 258.16H82.1692L78.8568 256.021L76.964 253.026L73.1785 254.31H61.3485L57.563 253.026L52.831 254.31V251.743L50.9382 248.32V245.753L45.2599 240.619V233.774H43.8403L38.1619 232.918L33.9032 229.068V215.805L31.5372 214.521H27.2784L23.4928 212.382L22.0732 210.243V204.253L24.9124 202.542L27.2784 198.264L31.5372 195.269L32.4836 193.557L33.9032 188.851L38.1619 187.14L40.5279 184.145L43.8403 185.856L47.1527 188.851L48.099 191.846H52.831L56.1434 188.851H68.9197L70.3393 184.145L73.1785 180.722H74.5981L78.8568 171.738L82.1692 170.027L86.428 167.032L89.2671 166.176L91.6331 163.609L93.5259 158.475L95.8919 155.48L97.3115 151.202V148.635L102.99 144.357L107.249 142.645H111.034L114.82 146.068H120.498L122.864 149.491L124.284 153.341V155.48L126.176 158.475H129.016V155.48L131.382 158.475L135.64 160.186Z"
                fill="url(#paint5_linear_37_4566)"
                fill-opacity="0.6"
                stroke="#4A9BD4"
                stroke-width="1.33333"
              />
              <path
                d="M52.4652 257.122V254.116L58.116 253.257L60.9413 254.116H73.6554L76.4808 253.257L78.3644 255.405L81.1897 257.981H94.3747L95.7874 260.558V263.135L94.8456 265.282L97.671 267.858H100.025V270.865L102.38 275.159L108.502 277.736L111.798 280.742L114.623 282.459L116.978 285.466H118.39V287.613L122.157 291.478L120.745 294.054H118.39L115.565 295.772V297.919V308.656H112.269L107.56 311.662V314.238L110.856 315.527H115.565L112.269 317.244L110.856 320.251L107.56 322.827H104.264L102.38 324.116L108.972 326.263V332.275L107.56 334.422H104.264L100.967 333.563L100.025 336.999V343.011H94.8456L91.5494 340.864L88.2531 341.723V345.158H84.9569L86.8405 340.005L88.2531 334.422L90.6076 332.275L88.2531 328.41V326.263L84.9569 324.116V317.244L88.2187 315.509L84.0151 313.379L84.9569 308.656H81.1897V305.22L83.0733 303.502H78.3644V308.656H75.539V311.662L78.3644 314.238V317.244L75.539 322.827L69.4174 326.263L64.7085 327.122L58.116 330.557L52.4652 332.275H47.7563L44.931 330.557L40.6929 327.122L37.3967 326.263L35.0422 322.827L29.8624 320.251L25.1534 315.527L22.3281 314.238L20.9154 310.373H18.09L15.7356 306.508L12.4393 303.502V299.637L15.7356 297.49L18.09 299.637H20.9154L23.7408 297.49L26.5661 297.919L31.7459 297.49L37.3967 294.054L38.8093 289.331L41.6347 287.613L43.5183 285.466L38.8093 286.324L37.3967 287.613H33.6295L27.5079 289.331L25.1534 291.478H22.3281L18.09 289.331H15.7356L11.0266 287.613L8.67218 284.607L4.43414 281.601L1.60878 278.594L0.666992 275.159V272.153L4.43414 270.865L5.84682 266.57V263.993L7.2595 260.558L22.3281 260.987L25.1534 263.993H27.5079H31.7459L33.6295 262.276L37.3967 260.987H40.6929L41.6347 259.27H42.5765V262.276H47.7563L50.1108 260.558L52.4652 257.122Z"
                fill="url(#paint6_linear_37_4566)"
                fill-opacity="0.6"
                stroke="#4A9BD4"
                stroke-width="1.33333"
              />
              <path
                d="M190.824 139.045L185.606 136.042L185.132 138.187L182.76 139.903L181.812 141.619L177.543 145.48L177.069 148.483L175.171 150.198L174.223 152.772V155.775L176.12 157.491V163.926L175.171 166.5L179.44 170.361V175.509L181.812 177.654L183.709 182.373V184.947L182.76 188.379L181.337 189.666L179.44 189.237L176.12 190.953L179.914 193.956L180.389 196.959L182.76 200.391V203.393L184.658 205.109L181.337 207.683L179.914 210.686L181.812 211.544L189.875 207.683H191.772L195.093 208.97H196.516L203.156 211.544L205.528 211.115L210.271 212.402L214.065 216.263V221.411L212.168 222.269V225.701L209.322 229.991L207.425 233.852H205.053L203.63 236.855H199.836L197.939 238.142V241.145L199.836 242.432L200.31 245.864L198.413 247.58H196.99V250.154L197.939 251.869V257.875L200.785 258.733L202.682 260.449L205.528 262.594L207.899 263.023L209.797 261.736H212.168V258.304L210.271 254.872H208.848L207.425 251.441L206.951 249.296L204.579 245.864V241.145L207.425 239.858L210.271 238.571H212.168V242.861L214.065 243.719L219.283 243.29L222.603 245.864H228.295L230.192 243.29L232.564 242.432L233.513 241.145H239.679V245.864H242.05L245.371 244.577H250.588L249.639 247.58L250.588 249.296H254.383L255.331 248.438L258.652 244.577L264.343 245.006L266.715 245.864L269.087 248.009L272.407 249.296L275.727 250.154L279.996 253.585H286.636L289.008 255.301L289.482 270.316H297.546L299.443 267.313L301.34 264.739L302.289 261.736L303.712 260.02L302.289 257.875V257.017H304.66L305.135 253.585L303.238 251.441L300.866 250.154L300.392 247.58V245.006L302.763 242.003L304.186 240.716L307.506 239.858L308.929 238.571L311.775 237.284L314.147 235.568L316.044 233.852L317.941 233.423L320.787 234.281L325.056 233.423L326.954 231.707L324.108 229.562L321.262 228.704L317.941 226.559L316.044 224.843V223.556L315.096 221.84H317.467V220.124L315.096 217.979L313.198 216.692L316.044 214.118H320.787V210.257L315.096 205.967L311.301 199.962V198.675H307.506L305.609 197.388L301.34 196.959V198.246L299.917 199.962L298.494 197.388L289.482 196.959L289.008 193.956L288.059 192.24H279.996L277.624 188.379H272.407L266.241 186.663L262.92 184.947L257.229 180.657L252.485 178.083L249.639 175.08L246.319 173.364H242.525L239.204 172.077L235.41 169.074L233.987 170.361L231.615 169.074H227.821L224.501 166.929L223.078 168.216L220.232 166.5L217.86 163.497H214.54L211.22 161.352L209.797 159.207L211.22 156.633L208.848 155.346L204.579 151.914L202.682 149.769L201.259 146.338L196.99 145.051V149.769L195.093 151.914H190.824L188.927 149.769L189.875 145.48V143.764L190.824 141.19V139.045Z"
                fill="url(#paint7_linear_37_4566)"
                fill-opacity="0.6"
                stroke="#4A9BD4"
                stroke-width="1.33333"
              />
              <path
                d="M119.201 308.557H116.844H116.373V296.073L119.201 294.351H121.558L122.972 291.768L119.201 287.894V287.033H124.386L128.156 284.45V282.297H126.271L124.386 281.006V279.714L126.271 277.992L130.984 276.701L132.398 274.548V265.508L129.57 262.925V256.037L130.984 250.01L133.341 249.149L136.169 246.566L138.054 248.288L137.112 250.01L140.411 251.732H146.067L148.895 253.023L152.666 257.328H148.895V266.369L144.182 267.66V269.382L152.666 269.813L153.137 267.66L155.494 266.369V262.064H163.978L166.334 263.786L170.576 264.647V258.189H171.99L175.29 253.023H170.576L169.634 250.01L170.576 247.427V245.274L173.404 244.844H181.888V237.956H179.06L177.175 239.247L169.162 239.678L165.392 237.956L163.978 236.234L163.035 233.651L163.978 230.207L166.334 228.915L168.22 226.332L173.404 224.18L175.29 222.028H177.175L179.06 218.584H183.302L187.073 216.862H188.958L190.844 214.279H192.258L196.028 211.265V208.682H196.971L203.57 211.265L205.926 210.835L210.64 212.126L214.41 216.001V221.167L212.525 222.028V225.472L209.697 229.776L207.812 233.651H205.455L204.041 236.664H200.27L198.385 237.956V240.969L200.27 242.261L200.742 245.705L198.856 247.427H197.442V250.01L198.385 251.732V257.759L201.213 258.62L203.098 260.342L205.926 262.494L208.283 262.925L210.168 261.633H212.525V258.189L210.64 254.745H209.226L207.812 251.301L207.34 249.149L204.984 245.705V240.969L210.64 238.386H212.525V242.691L214.41 243.552L219.595 243.122L222.894 245.705H228.55L230.436 243.122L232.792 242.261L233.735 240.969H239.862V245.705H242.219L245.518 244.413H250.703L249.76 247.427L250.703 249.149H254.474L258.716 244.413L264.372 244.844L266.728 245.705L269.085 247.857L272.384 249.149L275.684 250.01L279.926 253.454H286.524L288.881 255.176L289.352 271.104L286.053 272.396H274.741L273.327 271.535L271.442 270.243H267.2L266.257 274.979V277.992H271.442L274.27 280.145H275.684L278.04 281.867V284.019L274.27 287.033L271.442 290.046L269.085 289.616L268.614 294.351L266.257 295.212L263.9 296.934L263.429 298.656H258.716L257.302 299.517L255.888 302.1V303.391L254.002 306.405H252.117L250.703 308.127V312.001L248.818 313.293V319.32L245.518 320.611L245.047 319.32L242.219 318.028L239.391 314.584H235.149V316.737L230.907 315.876L229.964 314.154L227.608 315.445H225.251L223.366 312.862L222.423 313.293H219.124L216.767 314.154L211.111 315.876L207.34 316.737H205.455L204.041 315.445H200.742L197.914 316.737L196.5 319.32L192.258 320.181H188.958L184.245 318.889L181.417 318.028L184.245 315.445V313.293H176.704L171.048 314.154L170.576 316.737L167.748 319.32L166.806 323.194L160.207 323.625L158.322 325.347L155.494 323.194L154.08 319.32L152.666 320.181H143.71L138.997 318.028H136.169L133.812 315.445L128.628 314.154L124.386 313.293L121.558 310.279V306.835L119.201 308.557Z"
                fill="url(#paint8_linear_37_4566)"
                fill-opacity="0.6"
                stroke="#4A9BD4"
                stroke-width="1.33333"
              />
              <path
                d="M314.033 198.288H311.2V199.572L314.977 205.564L320.642 209.844V213.696H315.921L313.088 216.264L314.977 217.548L317.337 219.26V221.401H314.977L315.921 223.113V224.397L317.809 226.109L321.114 228.249L324.419 229.105L326.779 231.245L324.891 232.957L320.642 233.813L317.809 232.957L315.921 233.385L314.033 235.097L311.672 236.809L308.84 238.093L307.423 239.377L304.119 240.233L302.702 241.517L300.342 244.513V247.509L300.814 249.65L303.174 250.934L305.063 253.502L304.591 256.498H312.616L314.505 254.786L315.921 255.642L318.754 257.782L322.53 259.066L323.475 262.062H326.779L329.14 258.21L331.028 256.498L332.917 259.922H334.805L339.054 257.782H345.191L348.024 256.07V251.79H353.217L356.522 253.93L357.938 256.498L360.298 258.21L362.187 260.778L364.075 260.35L365.019 259.066V258.21L366.436 254.786L370.212 255.214H373.517L375.406 253.502V247.937L382.487 243.229L383.903 241.517H390.041V237.665L394.289 236.809L396.178 234.669L395.706 233.385L391.929 230.817L390.041 228.677V227.393L397.122 223.113L398.066 219.26H399.483L400.427 217.12L398.066 213.696L394.289 217.12L391.929 217.976H383.431L381.543 219.26L375.878 217.976L373.989 214.98H372.101L370.212 217.976H368.796L364.075 214.98H363.131L354.633 212.84L351.801 214.98L348.496 213.696V210.7L346.135 208.988L344.247 210.7L341.887 211.128H338.11V210.7L334.805 208.988L333.389 207.276L331.5 207.704L327.251 205.136L325.835 202.996L326.307 200H324.419L318.282 196.576L315.921 197.004L314.033 198.288Z"
                fill="url(#paint9_linear_37_4566)"
                fill-opacity="0.6"
                stroke="#4A9BD4"
                stroke-width="1.33333"
              />
              <path
                d="M85.71 351.323V345.307H89.0106V341.87L92.3112 341.01L95.6118 343.159H100.798V337.143L101.741 333.706L105.042 334.565H108.343L109.757 332.417V326.401L103.156 324.253L105.042 322.963H108.343L111.643 320.385L113.058 317.378L116.358 315.659H111.643L108.343 314.37V311.792L113.058 308.784H116.358V308.354H119.659L121.545 306.635V310.073L124.374 313.081L133.805 315.229L136.162 317.807H138.991L143.706 319.956H152.665L154.08 319.096L155.494 322.963L158.323 325.112L160.209 323.393L166.811 322.963L167.754 319.096L170.583 316.518L171.054 313.94L176.712 313.081H184.257V315.229L181.428 317.807L188.972 319.956H192.272L196.516 319.096L197.931 316.518L200.76 315.229H204.06L205.475 316.518H207.361L219.149 313.081H222.449L223.392 312.651L225.279 315.229H227.636L229.994 313.94L230.937 315.659L235.18 316.518V314.37H239.424L242.253 317.807L245.082 319.096L246.025 321.674L240.839 325.971L243.196 329.409L243.668 331.987L242.253 334.565L246.025 336.714V340.581H242.253V343.159H244.611V344.878L242.253 346.596V349.175L245.082 350.893L248.854 355.19V359.487H245.082L243.668 357.768H242.253L241.31 360.347V364.643L239.424 365.932V372.378L237.066 371.948H234.709L232.823 370.229V367.222L231.88 365.073V359.917L232.823 359.057L231.88 356.909L229.522 353.901H227.636V356.05H224.335L222.449 355.19L219.149 354.331L218.677 353.042H215.377L214.434 353.901H212.076L210.662 351.753L208.775 349.604H203.589L200.288 348.745V353.471L198.402 357.768V359.487L196.045 360.776L191.801 359.487L190.858 360.347L188.5 365.073L191.801 368.94V370.229L189.443 371.948L188.5 373.237L186.614 374.956L184.728 375.815L184.257 378.394H181.428L180.956 377.534L180.013 376.675L178.598 377.104L176.241 380.112L173.883 381.831H171.054L170.111 383.55V386.987H168.225L166.811 390.425H161.152L159.738 393.862V396.87H157.852L154.08 396.011L152.194 396.87L146.535 395.151H145.121L143.706 397.73L145.121 399.878V404.175H138.048L136.634 406.323H134.276L132.861 405.034L130.032 406.323L129.089 408.901L125.789 409.761V412.769L123.431 411.48H120.602L118.716 412.769V415.777L120.602 418.355H123.431L122.96 423.081L121.545 424.37L117.773 429.527H111.643L110.229 431.245L108.814 432.105L106.928 429.097L104.099 425.659V421.363L102.213 419.644L100.798 416.636V412.339L99.3839 408.901V406.753L98.4409 402.456V399.878L97.0263 396.87V394.292L95.1403 391.284V388.706L93.2542 385.698L93.7257 383.55L91.3681 379.253V374.097L89.0106 372.378V356.909L85.71 351.323Z"
                fill="url(#paint10_linear_37_4566)"
                fill-opacity="0.6"
                stroke="#4A9BD4"
                stroke-width="1.33333"
              />
              <path
                d="M109.588 431.092L108.168 431.961L107.694 434.567H109.588V435.871L111.008 438.912L112.428 440.65V443.691L114.321 445.863L115.741 444.125H117.161L118.108 443.256V431.092L117.161 429.354H111.008L109.588 431.092Z"
                fill="url(#paint11_linear_37_4566)"
                fill-opacity="0.6"
                stroke="#4A9BD4"
                stroke-width="1.33333"
              />
              <path
                d="M114.639 446.555V445.696L116.049 443.977H117.459L118.399 442.688V431.088L117.929 428.94L121.219 424.214L122.63 422.925L123.1 418.199H120.279L118.399 415.621V412.614L120.279 411.325H123.1L125.45 412.614V409.606L128.74 408.747L129.68 406.169L132.501 404.88L133.911 406.169H136.261L137.671 404.021H144.722V399.724L143.312 397.576L144.722 394.998H146.132L151.773 396.717L153.653 395.858L157.413 396.717H159.294V393.71L160.704 390.272H166.344L167.755 386.835H169.635V383.398L170.575 381.68H173.395L175.745 379.961L178.096 376.954L179.506 376.524L180.446 377.383L180.916 378.242H183.266L183.736 379.961V386.835L183.266 388.124L182.796 391.561L185.147 393.71L184.206 394.998L183.736 396.287L180.916 397.576L180.446 399.295L180.916 401.443V408.317L180.446 412.614H178.566V415.192H180.446L183.736 416.48V419.918L182.796 422.495L180.446 423.355H175.745L174.805 424.214V430.229L173.395 432.807V435.385L175.275 437.533L175.745 440.111L172.925 441.4L167.755 440.97L168.695 443.548L169.635 445.266L167.755 447.415V449.992L168.695 451.281L169.635 453.429L170.575 453.859V458.156L171.515 456.007L174.805 455.578H177.626L180.446 456.007V460.733H175.745L174.805 458.156H172.925L171.515 459.444L171.045 461.163L172.455 462.452V465.03L172.925 466.319L176.216 465.889L179.036 463.311L182.796 465.889L187.967 463.741L189.847 463.311L191.727 463.741H193.607L194.078 465.459L195.018 467.608L196.898 468.467H199.718L201.128 471.045V474.482H204.889V475.341L202.068 478.349V482.215L199.248 482.645L196.898 484.364L194.078 482.645H191.727L188.907 482.215L187.967 483.504L186.557 486.082H183.736L184.206 490.379L182.796 492.097V494.675L187.027 495.964V498.112V500.26L182.326 500.69L181.386 501.979H174.335L171.045 503.268L169.165 505.846H166.344L163.994 503.268H160.704L158.824 501.979H156.003L153.653 500.69L149.423 499.401L148.012 497.253L144.252 495.534L141.902 492.956L139.081 490.808L137.201 488.23L130.62 484.793L129.21 481.356H128.27V474.911L127.33 471.904V468.467L125.92 465.889V464.6L123.1 462.452V456.867L120.279 455.578V452.141L116.989 447.844L114.639 446.555Z"
                fill="url(#paint12_linear_37_4566)"
                fill-opacity="0.6"
                stroke="#4A9BD4"
                stroke-width="1.33333"
              />
              <path
                d="M131.885 487.918L131.414 484.935L137.542 488.344L139.428 490.901L142.256 493.032L144.613 495.588L148.384 497.293L150.27 499.424L154.041 500.702L156.398 501.98H159.226L161.112 503.259L162.055 506.242L159.226 507.946L160.64 511.355H163.469L164.411 514.338L167.24 514.764L168.654 517.747L168.183 520.73L170.068 524.565V527.548L171.482 530.105L173.839 531.384L176.196 530.105H177.61L178.082 533.088V541.611L179.025 545.02L182.324 545.446L181.382 548.429L178.082 549.707V551.838L176.196 555.247L177.61 558.23V559.935L178.082 561.639V565.048L176.196 568.031L172.425 565.048L170.068 561.639H168.183L167.24 558.23L164.411 554.395L162.055 551.838V548.003L160.64 545.446V544.168H162.055L160.64 538.202V536.497L159.226 535.219L157.812 530.957L155.455 527.548V526.27L154.041 522.435L151.213 520.73L150.27 517.321V514.764L146.027 508.799L143.67 503.259H141.785L138.956 499.85L137.071 496.015L131.885 487.918Z"
                fill="url(#paint13_linear_37_4566)"
                fill-opacity="0.6"
                stroke="#4A9BD4"
                stroke-width="1.33333"
              />
              <path
                d="M397.406 204.28L394.065 202.154L395.02 200.028V194.925L396.452 193.224V191.098L397.406 187.696L399.793 188.121L401.702 186.846L405.52 185.57H411.248V190.248L413.157 191.523L412.202 194.925V200.453L411.248 201.729L409.816 202.579L405.043 203.005L403.134 204.28H397.406Z"
                fill="url(#paint14_linear_37_4566)"
                fill-opacity="0.6"
                stroke="#4A9BD4"
                stroke-width="1.33333"
              />
              <path
                d="M475.494 196.795V209.316L479.287 207.157L484.503 207.589L486.874 205.43H491.616L495.41 207.589H507.739L508.688 206.294L512.481 205.862L513.43 202.408L515.327 201.112L515.801 198.522L521.017 195.068L524.336 195.499L526.707 192.045H529.553L530.501 190.75L535.717 190.318L538.088 188.591H541.882L544.727 188.159L546.624 185.568H552.314L554.211 187.296L552.314 192.045V195.499L553.737 198.522V201.112L550.418 200.681L546.15 201.544L543.779 204.135L541.882 204.567L539.985 207.157L540.459 213.634L546.15 211.043L550.418 208.021L556.582 202.408L560.85 201.112H564.169L567.963 200.249L570.334 201.112L571.757 202.408L573.653 202.84L575.55 204.998H577.447V201.112L575.076 199.385L574.128 197.226L573.653 193.772L575.076 191.613L577.447 189.454L579.818 189.023L582.663 187.296V181.682L581.715 179.524L578.87 178.228L576.973 178.66H574.128L573.653 176.069L571.757 175.638L570.334 173.91L568.911 173.479L565.118 174.774L565.592 173.047L567.015 171.32V169.161L565.118 165.275L562.273 163.116L561.324 162.252L562.273 159.23L561.324 158.366H559.427L558.953 157.503H551.84L551.366 158.366L548.995 159.23L547.572 160.957L544.253 161.821L541.882 163.548L538.088 163.116L535.717 161.821H532.872L530.975 160.094L525.759 159.23L522.914 160.094L522.44 164.411L519.12 167.002L516.275 169.593L512.481 170.024L511.533 171.32L506.791 172.615L503.946 172.183L502.523 173.479L497.781 176.069V177.796H494.936L494.462 179.955L491.142 182.978L489.245 183.41V186.432L486.4 189.023L480.236 189.886H478.813L475.494 191.182H471.7L468.855 189.886L466.958 194.204L468.855 196.795H475.494Z"
                fill="url(#paint15_linear_37_4566)"
                fill-opacity="0.6"
                stroke="#4A9BD4"
                stroke-width="1.33333"
              />
              <path
                d="M538.075 207.031H539.96L540.432 213.517L538.075 214.814V216.543L536.189 219.138L538.075 224.326L539.96 226.488L537.132 229.515L535.718 230.38L535.246 233.406L533.361 233.839L531.947 236.001L530.533 237.73L529.59 238.163L528.176 239.027V236.433L526.761 235.136H524.876L522.99 236.001L520.633 237.298H518.748L514.977 236.001H512.148L510.263 237.298V240.757L507.434 243.351H503.192L505.077 240.324V238.595L502.249 237.298L503.192 233.839L506.02 232.109L508.849 229.083L511.677 229.947L514.977 226.921L516.862 223.894L517.805 222.164L520.633 218.273L523.933 216.111H524.876L530.533 211.355L538.075 207.031Z"
                fill="url(#paint16_linear_37_4566)"
                fill-opacity="0.6"
                stroke="#4A9BD4"
                stroke-width="1.33333"
              />
              <path
                d="M502.453 244.052L503.391 243.199H507.613L510.427 240.64V237.228L512.303 235.948H515.118L518.87 237.228H521.216L524.968 235.095H526.845L528.252 236.375V238.507L526.845 243.199L530.128 245.331L530.597 246.184L529.19 250.022L527.783 251.728L526.845 253.434L524.968 255.14L523.092 258.126L522.154 261.538L520.278 264.097V266.229L519.339 269.214H514.649L512.772 268.361H509.489L506.205 267.935H504.329L502.453 267.082V265.802H495.886V257.273L498.7 254.287V250.022L500.107 248.317L501.515 246.184L502.453 244.052Z"
                fill="url(#paint17_linear_37_4566)"
                fill-opacity="0.6"
                stroke="#4A9BD4"
                stroke-width="1.33333"
              />
              <path
                d="M493.661 258.761L495.538 259.62V265.635H502.109V266.924L503.987 267.783L503.048 269.072V275.516L503.987 278.953V284.968L503.048 286.257L500.232 287.116L498.824 288.834L497.885 290.553V296.568L498.824 298.948V302.582L494.6 305.59L494.13 307.738L489.906 305.59H488.498L488.028 306.449H486.62V302.153V298.716L485.682 298.286V293.99L483.335 289.264L482.396 286.257V280.672L481.457 278.953L480.049 275.516L479.11 274.227L481.927 269.931V266.924L482.865 264.346L484.743 262.627L489.436 261.338L490.845 259.62L493.661 258.761Z"
                fill="url(#paint18_linear_37_4566)"
                fill-opacity="0.6"
                stroke="#4A9BD4"
                stroke-width="1.33333"
              />
              <path
                d="M301.874 261.901L300.921 264.891H303.304L304.734 266.173V269.163L310.453 274.717V276.426H312.836V280.698L314.266 283.261L316.172 286.252L319.509 287.961H321.415V291.378L317.602 293.087L314.266 294.796V298.641L315.219 299.068L323.322 301.631L326.658 299.922L333.33 298.641L336.667 299.068V301.631L334.76 304.622L336.667 306.331H339.05L340.956 305.476L346.675 304.622L348.105 306.331L353.348 307.185L355.254 304.622V299.068L356.208 297.786H359.544L361.45 299.922L367.17 301.631L369.553 302.913L370.982 301.204V299.068L368.123 294.796L364.31 293.087L362.88 291.378V290.524L364.31 289.669V287.961H359.544L356.208 286.252L353.348 284.543V278.135L355.254 276.426H356.208L357.637 278.135L360.497 277.707L362.404 276.426L364.31 274.717H368.123L369.553 272.581L370.982 270.445L374.795 268.736L375.749 270.445L379.085 272.154L380.515 271.299V267.027H384.328L385.757 264.464H386.711L388.14 262.755V261.046H390.047V258.056L391 256.347L392.907 255.92V250.793L390.523 246.521V242.249H384.328L382.898 243.958L375.749 248.657V254.638L373.842 255.92L370.506 255.493H367.17L365.263 258.91V259.765L364.31 261.046H362.404L360.497 258.91L358.114 257.201L356.684 254.638L353.348 252.502H348.105V257.201L344.769 258.91H339.05L334.76 261.046H332.854L330.947 257.201L328.564 258.91L326.658 262.755H323.322L322.368 260.192L317.602 258.056L314.266 255.493L312.36 257.201H301.874V258.056L303.304 260.192L301.874 261.901Z"
                fill="url(#paint19_linear_37_4566)"
                fill-opacity="0.6"
                stroke="#4A9BD4"
                stroke-width="1.33333"
              />
              <path
                d="M471.182 209.221H475.905L479.684 207.071L484.88 207.501L487.242 205.351H491.965L495.744 207.501H508.025L508.97 206.211L512.749 205.781L513.693 202.341L515.583 201.051L516.055 198.471L521.251 195.031L524.558 195.461L526.919 192.02H529.753L530.698 190.73L535.894 190.3L538.256 188.58H542.035L544.869 188.15L546.758 185.57H552.426L554.316 187.29L552.426 192.02V195.461L553.844 198.471V201.051L551.009 200.621L546.286 201.481L543.924 204.061L542.035 204.491L540.145 207.071H538.256L530.698 211.371L525.502 215.671H524.558L521.251 217.822L517.945 222.982L515.11 226.852L511.804 229.862L508.97 229.002L506.136 232.012L503.302 233.732L502.829 237.172L505.191 238.462V240.183L502.829 244.053L501.412 246.203L500.468 248.353L498.578 250.073V254.373L495.744 257.383V259.963L493.855 259.103L491.02 259.963L490.076 261.684L484.407 262.974L482.99 264.264L481.101 259.533L477.794 257.383L479.212 253.513V250.933L480.629 250.073H482.518H484.407V248.353L482.518 247.493V247.063L490.548 241.903V240.183L489.131 239.753L486.297 235.022L481.101 232.012L479.212 231.582V228.142L482.518 225.992H471.182L468.347 227.712L466.93 229.862L464.569 230.292L463.151 231.582H460.317L458.9 230.292L454.649 228.572H452.287L448.509 227.712H439.534L437.172 228.142L436.227 229.002L433.866 231.582V234.162L432.448 233.732L431.504 232.012V229.002L429.614 225.992L428.197 223.842L429.614 222.552H431.031V218.252L432.921 216.962V214.381L431.031 212.661L430.559 211.371L436.227 211.801L439.061 209.221H442.368L445.674 210.511L467.875 210.941L471.182 209.221Z"
                fill="url(#paint20_linear_37_4566)"
                fill-opacity="0.6"
                stroke="#4A9BD4"
                stroke-width="1.33333"
              />
              <path
                d="M432.857 235.184L433.795 233.896V231.321L437.08 227.887L439.426 227.458H448.34L452.094 228.316H454.44L458.663 230.033L459.601 231.321H462.885L464.293 230.033L466.639 229.604L468.047 227.458L470.862 225.741H482.123L478.838 227.887V231.321L480.715 231.75L485.876 234.755L488.691 239.477L490.099 239.906V241.623L482.123 247.203L478.838 246.344L476.961 243.34H471.8L467.108 244.627H462.885L460.539 242.91H456.317L453.971 243.769L451.155 243.34L447.871 244.198H440.833L438.018 242.481L436.61 242.91L432.857 242.052L431.449 241.194L430.511 239.047L432.857 236.901V235.184Z"
                fill="url(#paint21_linear_37_4566)"
                fill-opacity="0.6"
                stroke="#4A9BD4"
                stroke-width="1.33333"
              />
              <path
                d="M195.908 32.4036H185.526V30.2592L183.639 27.2571L178.92 25.9704L175.144 23.8261L173.729 20.8239L170.425 17.8218L165.706 16.1063L161.931 12.6753L158.628 12.2464L155.324 7.52877L151.077 4.95551V0.666748H149.19L144.943 1.95338H142.583L139.28 0.666748H135.976L132.673 1.95338H119.932V4.95551H108.134L109.078 7.52877L105.775 12.6753L102.471 12.2464L99.1679 15.6774L97.2803 20.8239L102.471 23.8261L109.078 24.2549L110.965 28.5437L117.572 30.2592V32.4036L120.404 32.8325L122.763 35.8346L129.842 38.8367H135.033L135.976 42.2677L142.583 43.5544H145.886L148.246 48.272V52.5608L149.19 55.5629L151.077 54.7051L155.324 57.7073V60.2805H157.212L159.1 63.2827L163.819 65.427L161.931 71.0024H165.706L168.538 72.2891L173.729 77.4356V79.1511L177.032 81.2955H182.695H185.526L186.942 80.0088L189.773 81.2955L192.605 84.2976V86.442L194.964 87.2997L199.683 86.442V87.2997L203.459 89.0152L206.29 91.1596L209.121 87.2997V92.0174H215.728L217.616 91.1596H219.503L221.863 87.2997V73.5757H216.672L211.953 71.0024L212.897 67.5714L213.84 65.427L212.897 63.2827L211.953 59.4228H221.863L223.278 54.7051V51.2741H227.054V49.9875V47.4142H232.245L234.132 44.841V40.1234L235.548 34.9768V32.4036L232.245 30.2592V28.9726H228.469L226.11 28.1148L221.863 24.6838L219.503 20.8239H212.897L208.178 25.9704L195.908 32.4036Z"
                fill="url(#paint22_linear_37_4566)"
                fill-opacity="0.6"
                stroke="#4A9BD4"
                stroke-width="1.33333"
              />
              <path
                d="M394.506 205.395L393.563 201.958L396.865 204.106H402.527L404.414 202.817L408.66 202.387L410.075 201.528L411.49 205.395L413.849 207.543V209.261H423.285L426.115 211.409H429.889L430.361 212.698L432.248 214.416V216.994L430.361 218.283V222.579H428.946L427.531 223.868L426.115 224.297L425.172 227.734H424.7L421.869 226.875L418.567 224.727L416.208 223.008V220.431L414.321 218.712H412.906V221.29H411.49L408.66 220.001L403.942 220.431L396.865 226.875V229.023L399.696 231.171L401.583 232.03L402.998 235.467L406.301 238.474L409.131 238.045L411.49 239.763L413.849 242.341L413.377 243.629H409.131L404.885 244.489L402.527 246.207L402.055 247.926L395.922 251.792V255.229L396.865 256.947L398.752 258.666L400.639 259.525L402.527 260.814H408.188V265.11L409.131 266.828V268.547L407.244 270.265L404.885 271.554V273.272L406.301 275.85L406.772 276.709L409.131 277.998L409.603 281.435L413.377 285.731L411.962 289.597V292.175L413.849 295.182V301.626L415.736 305.063V306.782L412.906 307.641L415.736 310.218V317.092L412.906 315.374H407.244V310.648H406.772L404.885 315.374H401.583L398.752 313.226L396.865 310.648V307.211L398.752 305.063L395.922 303.345L393.563 298.619L393.091 299.908V301.626L394.978 304.204L395.45 305.493V307.211L394.035 309.359L392.619 311.078L386.486 314.085L385.071 314.514L384.127 313.655L383.184 311.937L382.24 311.078H379.41L377.051 307.641L372.805 305.493L369.031 302.915L370.446 301.197V299.049L367.615 294.753L363.841 293.034L362.426 291.316V290.457L363.841 289.168V287.879H359.123L352.99 284.442V277.998L354.877 276.28H355.821L357.236 277.998L360.067 277.568L361.954 276.28L363.841 274.561H367.615L370.446 270.265L374.22 268.547L375.164 270.265L378.466 271.983L379.881 271.124V266.828H383.656L385.071 264.251H386.014L387.43 262.532V260.814H389.317V258.236L390.26 256.088L392.147 255.658V250.503L389.789 246.207V238.045L394.506 237.185L395.922 234.608L395.45 233.319L391.676 231.171L389.789 228.593V227.734L396.865 223.438L397.809 219.572H399.224L400.168 217.424L397.809 213.987L395.45 215.705L396.865 210.979V207.972L394.506 205.395Z"
                fill="url(#paint23_linear_37_4566)"
                fill-opacity="0.6"
                stroke="#4A9BD4"
                stroke-width="1.33333"
              />
              <path
                d="M243.298 374.065L239.019 372.351V365.925L240.92 364.64V360.355L241.871 357.785H243.298L244.724 359.498H248.528V359.07V355.214L244.724 350.93L241.871 349.216V346.645L244.249 344.931V343.218H241.871V340.647H245.675V336.791L241.871 334.649L243.298 332.078L242.822 329.936L240.445 326.08L245.675 321.796L245.199 320.51L248.528 319.225V313.227L250.429 311.942V308.086L251.856 306.372H253.758L255.659 303.373V302.088L257.086 299.517L258.512 298.66H263.267L263.742 296.946L266.12 295.233L268.497 294.376L268.972 289.234L271.35 290.091L274.202 287.521L278.006 284.093V281.951L275.629 280.237H274.202L271.35 278.095H266.12V274.668L267.07 270.383H271.35L274.678 272.525H286.089L289.417 271.24V270.383H297.5L299.401 267.384L301.779 264.813H303.68L305.107 266.527V269.098L310.812 274.668V276.381H313.19V280.666L316.518 286.235L319.846 287.949H321.748V291.377L314.616 294.804V298.66L312.714 299.517L307.484 304.23L305.107 305.087V311.085L303.68 313.655L302.254 315.798L301.303 318.368L297.975 323.081L296.549 323.509V324.366H286.564L283.236 327.794H281.81V344.931H287.99L289.417 348.787L286.564 350.93L278.957 346.645L273.251 344.931L270.399 346.645V348.787L271.825 350.93L274.678 354.357V356.499L276.58 360.355V369.781L274.678 372.351L268.972 378.35L265.169 380.492L263.742 383.062V388.632L261.365 388.204H254.709L253.282 387.347L251.856 384.348L250.429 382.205H248.528L246.626 378.778V376.636L245.675 375.779L243.298 374.065Z"
                fill="url(#paint24_linear_37_4566)"
                fill-opacity="0.6"
                stroke="#4A9BD4"
                stroke-width="1.33333"
              />
              <path
                d="M268.71 388.2L264.476 388.631V383.029L265.417 380.444L269.651 378.289L275.296 372.688L277.178 369.671V359.761L275.296 356.313V353.297L271.533 348.988V346.403L274.356 344.679L280.001 346.834L287.058 350.712L289.881 348.126L288.47 344.679H282.354V327.443H283.765L287.058 323.996H296.938V323.134L298.35 322.703L301.643 317.963L302.584 315.378L305.407 310.638V304.606L307.759 303.744L312.934 299.004L314.816 298.142L323.755 301.158L327.049 299.435L333.635 298.142L336.929 298.573V301.158L335.047 304.175L336.929 305.898H339.751L341.163 305.036L346.809 304.175L348.22 305.898L353.395 306.76L355.277 304.175V298.573L356.218 297.28L359.982 297.711L360.923 299.435L367.039 301.158L369.391 302.451L373.626 305.036L377.86 307.191L379.742 310.207H382.094L383.506 311.5L384.447 313.224L385.387 314.085L379.742 314.947L376.448 316.671L374.567 317.963V319.687L372.214 321.842V326.581L373.626 329.167L374.567 332.183L373.626 335.63L371.273 336.923V339.939L367.039 341.232L365.157 343.386L363.746 346.403L362.334 347.265L361.864 346.403L359.982 345.972L358.1 343.817L358.57 348.126V348.988H356.218L353.866 349.85L348.22 349.419L345.397 348.126H342.104L338.34 351.574L338.811 353.297L337.399 355.021L336.929 358.037L334.576 360.192L331.753 363.208L327.519 362.777L324.696 364.931H321.873V368.81H315.287L311.053 368.379L307.289 364.931L306.348 363.208L301.643 362.777L300.232 364.931V370.102H296.938L296.468 376.997L291.293 377.428L291.763 378.289L285.176 379.151L284.706 376.997H283.295V374.842H281.413L280.472 376.566V384.322L277.649 383.46L274.356 385.615L272.474 385.184L268.71 386.907V388.2Z"
                fill="url(#paint25_linear_37_4566)"
                fill-opacity="0.6"
                stroke="#4A9BD4"
                stroke-width="1.33333"
              />
              <path
                d="M259.719 392.204V388.355H255.913L254.01 387.499L252.583 384.933L251.156 382.367H249.254L247.351 378.946V376.808L244.021 374.242L239.74 372.531L237.362 372.103H234.983L233.081 370.393V367.399L232.129 365.063V360.129L233.081 359.273L232.129 357.135L229.751 354.142H227.848V356.28H224.994L222.616 355.425L219.286 354.569L218.81 353.286H215.481L214.529 354.142H212.151L210.724 352.003L208.821 349.865H204.064L200.259 349.01V353.714L198.356 357.99V359.701L195.978 360.984L191.697 359.701L190.745 360.984L188.367 365.261L191.697 369.11V370.393L189.318 372.103L188.843 372.959L186.464 375.097L184.562 375.952L184.086 378.518H183.61L184.086 380.229V387.072L183.61 388.355L183.135 391.776L185.513 393.914L184.562 395.197L184.086 396.48L181.232 397.763L180.756 399.474L181.232 401.612V408.455L180.756 412.732L178.854 413.159V415.298H180.756L184.086 416.581V420.002L183.135 422.568L185.037 423.851L191.221 419.574L195.502 417.864L201.686 419.574L208.345 417.008L211.675 419.574L218.335 417.008V414.442L223.091 411.021H225.946L228.8 411.876L231.654 409.31L233.556 407.172L237.362 403.751L240.692 402.04L242.119 403.751H245.448L246.4 399.902L250.205 397.763H252.583L256.865 399.902L258.292 396.053H264.475V393.059L261.621 392.204H259.719Z"
                fill="url(#paint26_linear_37_4566)"
                fill-opacity="0.6"
                stroke="#4A9BD4"
                stroke-width="1.33333"
              />
              <path
                d="M237.246 471.794L239.598 470.078V477.801L238.187 482.091V485.953L237.246 487.669L236.306 491.53L234.895 492.388L233.484 494.534L231.603 495.821L229.252 498.824H226.901V501.827L228.311 503.115V509.979L226.901 510.838L229.252 512.983V529.287L227.841 530.145H221.728L219.847 531.432L218.906 533.148V537.439L216.085 538.297L213.733 541.729L212.322 544.303L213.263 547.307L216.085 548.165L221.728 548.594L222.668 551.168L219.847 549.881H210.912L206.679 550.739L205.268 552.026L202.447 553.314H200.096L197.274 557.175V562.753L195.393 565.327L188.809 569.188L186.928 570.047L184.107 571.334H178.934L176.112 568.33L177.993 565.327V561.466L177.523 560.178V558.462L176.112 555.459L177.993 552.026V549.881L181.285 548.594L182.226 545.591L178.934 545.162L177.993 541.729V533.148L177.523 530.145H176.112L173.761 531.432L171.409 530.145L169.999 527.57V524.567L168.118 520.706L168.588 517.702L167.177 514.699L164.356 514.27L163.415 511.267L160.593 510.838L159.183 507.834L162.004 506.118L161.064 503.115H164.356L166.707 505.689H169.528L171.409 503.115L174.701 501.827H181.755L182.696 500.54L187.398 500.111V495.821L183.166 494.105V491.959L184.577 490.243L184.107 485.953H186.928L187.869 483.378L189.28 482.091L192.101 482.52H194.452L199.625 485.953L203.858 485.523L205.268 483.378L206.679 480.804L209.501 479.088H214.203L217.966 478.23L220.317 475.226H229.252L233.484 470.936L237.246 471.794Z"
                fill="url(#paint27_linear_37_4566)"
                fill-opacity="0.6"
                stroke="#4A9BD4"
                stroke-width="1.33333"
              />
              <path
                d="M329.696 365.455L331.582 363.745L327.338 363.317L324.509 365.028H321.68V369.304H314.136L310.835 368.876L307.063 365.455L306.12 363.745L301.405 363.317L299.99 365.455V370.586L296.69 371.014L296.218 377.428L291.031 377.855L291.503 378.711L284.902 379.566L284.43 377.428H283.016V375.29H281.13L280.187 377.428V384.697L277.358 383.842L274.057 386.407L272.171 385.124L268.399 387.262V388.545H264.627H262.269L259.44 388.118V392.393H261.326L264.155 393.249V396.242H258.025L256.611 400.09L252.367 397.952H250.01L246.238 400.09L245.295 403.938H241.994L240.579 402.228L236.807 403.938L233.507 407.359L232.092 409.069L228.791 412.063L226.434 411.207H223.133L218.418 414.628V417.194L211.817 419.759L208.516 417.194L201.915 419.759L195.785 418.049L191.07 419.759L185.412 424.035L183.526 422.752L181.168 423.607H176.453L175.51 424.463V430.449L174.096 433.442V435.58L175.982 437.718L176.453 440.283L173.153 441.566L168.438 440.711L169.381 443.704L170.324 445.414L168.438 447.552V450.118L169.381 451.401L170.324 453.539L171.267 453.966V457.815L172.21 456.104L175.51 455.677H178.811L181.168 456.104V460.808H176.453L175.51 458.242H173.624L172.21 459.525L171.738 461.235L173.153 462.518V465.084L173.624 466.366L176.925 465.939L179.754 463.373L183.526 465.939L188.713 463.801L190.599 463.373L192.485 463.801H194.371L195.785 467.649L197.671 468.077L200.501 468.504L201.915 471.07V474.49H205.687V475.346L202.858 478.339V482.187L200.029 482.615L197.671 484.325L200.029 486.035L204.273 485.608L206.159 483.042L207.102 480.904L209.931 479.194H214.646L218.418 478.339L220.776 475.346H229.734L233.978 471.07L237.75 471.925L240.108 470.642V467.649L237.75 462.518L236.807 457.815L237.75 455.249V452.683L235.864 448.408L235.393 438.573L237.279 435.58V434.297L242.465 427.883L245.766 426.601H249.538L250.481 427.883H251.896L253.782 427.028L256.611 424.89V422.752L258.025 420.614V416.766H270.756L280.187 412.918L281.13 411.635V401.8L284.43 400.09L291.031 397.952L296.69 395.387L299.99 391.966L301.405 389.828L303.762 388.545L306.12 385.98L307.535 383.842L310.835 381.704L312.721 379.993H314.607L316.493 378.283L319.322 377L324.509 372.297L327.338 369.304L329.696 365.455Z"
                fill="url(#paint28_linear_37_4566)"
                fill-opacity="0.6"
                stroke="#4A9BD4"
                stroke-width="1.33333"
              />
              <path
                d="M477.415 258.807L478.372 257.109L481.242 259.232L483.156 263.902L482.199 266.873V269.845L479.329 274.09H476.458L475.502 274.939L473.588 277.486V280.034H472.153L471.196 283.005V286.826H465.934L463.542 283.43H462.106L461.628 280.034L459.236 278.335L458.279 274.939V270.694L460.193 268.996L467.369 264.326H469.761L473.588 262.204V261.355L474.545 259.657L477.415 258.807Z"
                fill="url(#paint29_linear_37_4566)"
                fill-opacity="0.6"
                stroke="#4A9BD4"
                stroke-width="1.33333"
              />
              <defs>
                <linearGradient
                  id="paint0_linear_37_4566"
                  x1="120.591"
                  y1="35.0303"
                  x2="149.756"
                  y2="97.0355"
                  gradientUnits="userSpaceOnUse"
                >
                  <stop stop-color="#B3CCDE" stop-opacity="0.16" />
                  <stop offset="1" stop-color="white" />
                </linearGradient>
                <linearGradient
                  id="paint1_linear_37_4566"
                  x1="160.056"
                  y1="72.9067"
                  x2="193.117"
                  y2="136.488"
                  gradientUnits="userSpaceOnUse"
                >
                  <stop stop-color="#B3CCDE" stop-opacity="0.16" />
                  <stop offset="1" stop-color="white" />
                </linearGradient>
                <linearGradient
                  id="paint2_linear_37_4566"
                  x1="122.354"
                  y1="88.2876"
                  x2="157.396"
                  y2="150.886"
                  gradientUnits="userSpaceOnUse"
                >
                  <stop stop-color="#B3CCDE" stop-opacity="0.16" />
                  <stop offset="1" stop-color="white" />
                </linearGradient>
                <linearGradient
                  id="paint3_linear_37_4566"
                  x1="199.156"
                  y1="112.113"
                  x2="227.123"
                  y2="172.782"
                  gradientUnits="userSpaceOnUse"
                >
                  <stop stop-color="#B3CCDE" stop-opacity="0.16" />
                  <stop offset="1" stop-color="white" />
                </linearGradient>
                <linearGradient
                  id="paint4_linear_37_4566"
                  x1="133.206"
                  y1="123.951"
                  x2="170.408"
                  y2="191.424"
                  gradientUnits="userSpaceOnUse"
                >
                  <stop stop-color="#B3CCDE" stop-opacity="0.16" />
                  <stop offset="1" stop-color="white" />
                </linearGradient>
                <linearGradient
                  id="paint5_linear_37_4566"
                  x1="56.1244"
                  y1="139.134"
                  x2="126.258"
                  y2="296.907"
                  gradientUnits="userSpaceOnUse"
                >
                  <stop stop-color="#B3CCDE" stop-opacity="0.16" />
                  <stop offset="1" stop-color="white" />
                </linearGradient>
                <linearGradient
                  id="paint6_linear_37_4566"
                  x1="24.4236"
                  y1="251.019"
                  x2="66.4105"
                  y2="354.404"
                  gradientUnits="userSpaceOnUse"
                >
                  <stop stop-color="#B3CCDE" stop-opacity="0.16" />
                  <stop offset="1" stop-color="white" />
                </linearGradient>
                <linearGradient
                  id="paint7_linear_37_4566"
                  x1="204.088"
                  y1="132.772"
                  x2="272.013"
                  y2="276.679"
                  gradientUnits="userSpaceOnUse"
                >
                  <stop stop-color="#B3CCDE" stop-opacity="0.16" />
                  <stop offset="1" stop-color="white" />
                </linearGradient>
                <linearGradient
                  id="paint8_linear_37_4566"
                  x1="150.198"
                  y1="205.841"
                  x2="199.142"
                  y2="341.009"
                  gradientUnits="userSpaceOnUse"
                >
                  <stop stop-color="#B3CCDE" stop-opacity="0.16" />
                  <stop offset="1" stop-color="white" />
                </linearGradient>
                <linearGradient
                  id="paint9_linear_37_4566"
                  x1="319.913"
                  y1="194.981"
                  x2="346.749"
                  y2="271.374"
                  gradientUnits="userSpaceOnUse"
                >
                  <stop stop-color="#B3CCDE" stop-opacity="0.16" />
                  <stop offset="1" stop-color="white" />
                </linearGradient>
                <linearGradient
                  id="paint10_linear_37_4566"
                  x1="117.612"
                  y1="303.58"
                  x2="175.615"
                  y2="444.059"
                  gradientUnits="userSpaceOnUse"
                >
                  <stop stop-color="#B3CCDE" stop-opacity="0.16" />
                  <stop offset="1" stop-color="white" />
                </linearGradient>
                <linearGradient
                  id="paint11_linear_37_4566"
                  x1="109.731"
                  y1="428.952"
                  x2="120.409"
                  y2="441.498"
                  gradientUnits="userSpaceOnUse"
                >
                  <stop stop-color="#B3CCDE" stop-opacity="0.16" />
                  <stop offset="1" stop-color="white" />
                </linearGradient>
                <linearGradient
                  id="paint12_linear_37_4566"
                  x1="132.286"
                  y1="373.375"
                  x2="214.192"
                  y2="479.841"
                  gradientUnits="userSpaceOnUse"
                >
                  <stop stop-color="#B3CCDE" stop-opacity="0.16" />
                  <stop offset="1" stop-color="white" />
                </linearGradient>
                <linearGradient
                  id="paint13_linear_37_4566"
                  x1="141.369"
                  y1="482.911"
                  x2="195.347"
                  y2="544.509"
                  gradientUnits="userSpaceOnUse"
                >
                  <stop stop-color="#B3CCDE" stop-opacity="0.16" />
                  <stop offset="1" stop-color="white" />
                </linearGradient>
                <linearGradient
                  id="paint14_linear_37_4566"
                  x1="397.799"
                  y1="185.114"
                  x2="407.903"
                  y2="204.318"
                  gradientUnits="userSpaceOnUse"
                >
                  <stop stop-color="#B3CCDE" stop-opacity="0.16" />
                  <stop offset="1" stop-color="white" />
                </linearGradient>
                <linearGradient
                  id="paint15_linear_37_4566"
                  x1="489.583"
                  y1="156.136"
                  x2="507.525"
                  y2="225.023"
                  gradientUnits="userSpaceOnUse"
                >
                  <stop stop-color="#B3CCDE" stop-opacity="0.16" />
                  <stop offset="1" stop-color="white" />
                </linearGradient>
                <linearGradient
                  id="paint16_linear_37_4566"
                  x1="509.715"
                  y1="206.146"
                  x2="528.995"
                  y2="243.898"
                  gradientUnits="userSpaceOnUse"
                >
                  <stop stop-color="#B3CCDE" stop-opacity="0.16" />
                  <stop offset="1" stop-color="white" />
                </linearGradient>
                <linearGradient
                  id="paint17_linear_37_4566"
                  x1="502.673"
                  y1="234.265"
                  x2="521.129"
                  y2="269.238"
                  gradientUnits="userSpaceOnUse"
                >
                  <stop stop-color="#B3CCDE" stop-opacity="0.16" />
                  <stop offset="1" stop-color="white" />
                </linearGradient>
                <linearGradient
                  id="paint18_linear_37_4566"
                  x1="483.975"
                  y1="257.568"
                  x2="516.018"
                  y2="287.883"
                  gradientUnits="userSpaceOnUse"
                >
                  <stop stop-color="#B3CCDE" stop-opacity="0.16" />
                  <stop offset="1" stop-color="white" />
                </linearGradient>
                <linearGradient
                  id="paint19_linear_37_4566"
                  x1="318.908"
                  y1="240.668"
                  x2="347.11"
                  y2="315.078"
                  gradientUnits="userSpaceOnUse"
                >
                  <stop stop-color="#B3CCDE" stop-opacity="0.16" />
                  <stop offset="1" stop-color="white" />
                </linearGradient>
                <linearGradient
                  id="paint20_linear_37_4566"
                  x1="452.859"
                  y1="183.654"
                  x2="483.921"
                  y2="276.377"
                  gradientUnits="userSpaceOnUse"
                >
                  <stop stop-color="#B3CCDE" stop-opacity="0.16" />
                  <stop offset="1" stop-color="white" />
                </linearGradient>
                <linearGradient
                  id="paint21_linear_37_4566"
                  x1="442.163"
                  y1="225.218"
                  x2="447.405"
                  y2="252.331"
                  gradientUnits="userSpaceOnUse"
                >
                  <stop stop-color="#B3CCDE" stop-opacity="0.16" />
                  <stop offset="1" stop-color="white" />
                </linearGradient>
                <linearGradient
                  id="paint22_linear_37_4566"
                  x1="124.318"
                  y1="-1.55795"
                  x2="162.036"
                  y2="104.779"
                  gradientUnits="userSpaceOnUse"
                >
                  <stop stop-color="#B3CCDE" stop-opacity="0.16" />
                  <stop offset="1" stop-color="white" />
                </linearGradient>
                <linearGradient
                  id="paint23_linear_37_4566"
                  x1="368.489"
                  y1="198.714"
                  x2="441.998"
                  y2="292.618"
                  gradientUnits="userSpaceOnUse"
                >
                  <stop stop-color="#B3CCDE" stop-opacity="0.16" />
                  <stop offset="1" stop-color="white" />
                </linearGradient>
                <linearGradient
                  id="paint24_linear_37_4566"
                  x1="255.196"
                  y1="261.798"
                  x2="334.425"
                  y2="360.4"
                  gradientUnits="userSpaceOnUse"
                >
                  <stop stop-color="#B3CCDE" stop-opacity="0.16" />
                  <stop offset="1" stop-color="white" />
                </linearGradient>
                <linearGradient
                  id="paint25_linear_37_4566"
                  x1="288.119"
                  y1="295.056"
                  x2="329.818"
                  y2="397.858"
                  gradientUnits="userSpaceOnUse"
                >
                  <stop stop-color="#B3CCDE" stop-opacity="0.16" />
                  <stop offset="1" stop-color="white" />
                </linearGradient>
                <linearGradient
                  id="paint26_linear_37_4566"
                  x1="195.596"
                  y1="347.187"
                  x2="233.317"
                  y2="427.566"
                  gradientUnits="userSpaceOnUse"
                >
                  <stop stop-color="#B3CCDE" stop-opacity="0.16" />
                  <stop offset="1" stop-color="white" />
                </linearGradient>
                <linearGradient
                  id="paint27_linear_37_4566"
                  x1="174.907"
                  y1="467.612"
                  x2="236.476"
                  y2="558.687"
                  gradientUnits="userSpaceOnUse"
                >
                  <stop stop-color="#B3CCDE" stop-opacity="0.16" />
                  <stop offset="1" stop-color="white" />
                </linearGradient>
                <linearGradient
                  id="paint28_linear_37_4566"
                  x1="200.339"
                  y1="360.329"
                  x2="256.18"
                  y2="498.601"
                  gradientUnits="userSpaceOnUse"
                >
                  <stop stop-color="#B3CCDE" stop-opacity="0.16" />
                  <stop offset="1" stop-color="white" />
                </linearGradient>
                <linearGradient
                  id="paint29_linear_37_4566"
                  x1="463.144"
                  y1="256.386"
                  x2="480.841"
                  y2="283.98"
                  gradientUnits="userSpaceOnUse"
                >
                  <stop stop-color="#B3CCDE" stop-opacity="0.16" />
                  <stop offset="1" stop-color="white" />
                </linearGradient>
              </defs>
            </svg>