<svg width="21" height="18" viewBox="0 0 21 18" fill="none" xmlns="http://www.w3.org/2000/svg">
<path fill-rule="evenodd" clip-rule="evenodd" d="M12.2586 7.21719e-05C7.16857 -0.139928 2.99857 3.95007 2.99857 9.00007H1.20857C0.758566 9.00007 0.538566 9.54007 0.858566 9.85007L3.64857 12.6501C3.84857 12.8501 4.15857 12.8501 4.35857 12.6501L7.14857 9.85007C7.45857 9.54007 7.23857 9.00007 6.78857 9.00007H4.99857C4.99857 5.10007 8.17857 1.95007 12.0986 2.00007C15.8186 2.05007 18.9486 5.18007 18.9986 8.90007C19.0486 12.8101 15.8986 16.0001 11.9986 16.0001C10.3886 16.0001 8.89857 15.4501 7.71857 14.5201C7.31857 14.2101 6.75857 14.2401 6.39857 14.6001C5.97857 15.0201 6.00857 15.7301 6.47857 16.0901C7.99857 17.2901 9.90857 18.0001 11.9986 18.0001C17.0486 18.0001 21.1386 13.8301 20.9986 8.74007C20.8686 4.05007 16.9486 0.130072 12.2586 7.21719e-05ZM11.7486 5.00007C11.3386 5.00007 10.9986 5.34007 10.9986 5.75007V9.43007C10.9986 9.78007 11.1886 10.1101 11.4886 10.2901L14.6086 12.1401C14.9686 12.3501 15.4286 12.2301 15.6386 11.8801C15.8486 11.5201 15.7286 11.0601 15.3786 10.8501L12.4986 9.14007V5.74007C12.4986 5.34007 12.1586 5.00007 11.7486 5.00007Z" fill="#0C82EE"/>
</svg>
