<svg width="76" height="62" viewBox="0 0 76 76" fill="none" xmlns="http://www.w3.org/2000/svg">
<path d="M38 38C40.0334 38 42.0212 37.397 43.712 36.2673C45.4027 35.1376 46.7205 33.5319 47.4986 31.6532C48.2768 29.7746 48.4804 27.7073 48.0837 25.713C47.687 23.7186 46.7078 21.8867 45.2699 20.4488C43.8321 19.011 42.0001 18.0318 40.0058 17.6351C38.0114 17.2384 35.9442 17.442 34.0655 18.2201C32.1869 18.9983 30.5812 20.3161 29.4515 22.0068C28.3217 23.6975 27.7188 25.6853 27.7188 27.7188C27.7188 30.4455 28.802 33.0606 30.7301 34.9887C32.6582 36.9168 35.2732 38 38 38ZM38 20.375C39.4525 20.375 40.8723 20.8057 42.08 21.6126C43.2876 22.4196 44.2289 23.5665 44.7847 24.9084C45.3406 26.2503 45.486 27.7269 45.2026 29.1514C44.9193 30.576 44.2199 31.8845 43.1928 32.9116C42.1658 33.9386 40.8572 34.638 39.4327 34.9214C38.0081 35.2048 36.5316 35.0593 35.1897 34.5035C33.8478 33.9477 32.7008 33.0064 31.8939 31.7987C31.087 30.591 30.6562 29.1712 30.6562 27.7188C30.6562 25.7711 31.43 23.9032 32.8072 22.5259C34.1844 21.1487 36.0523 20.375 38 20.375Z" fill="url(#paint0_linear_367_209)"/>
<path d="M39.4688 40.9375H36.5312C32.2463 40.9375 28.1369 42.6397 25.1071 45.6696C22.0772 48.6994 20.375 52.8088 20.375 57.0938C20.375 57.4833 20.5297 57.8569 20.8052 58.1323C21.0806 58.4078 21.4542 58.5625 21.8438 58.5625H54.1562C54.5458 58.5625 54.9194 58.4078 55.1948 58.1323C55.4703 57.8569 55.625 57.4833 55.625 57.0938C55.625 52.8088 53.9228 48.6994 50.8929 45.6696C47.8631 42.6397 43.7537 40.9375 39.4688 40.9375ZM23.4006 55.625C23.7618 52.3947 25.3005 49.4107 27.7227 47.2432C30.1449 45.0756 33.2808 43.8765 36.5312 43.875H39.4688C42.7192 43.8765 45.8551 45.0756 48.2773 47.2432C50.6995 49.4107 52.2382 52.3947 52.5994 55.625H23.4006Z" fill="url(#paint1_linear_367_209)"/>
<rect x="1" y="1" width="74" height="74" stroke="url(#paint2_linear_367_209)" stroke-width="2"/>
<defs>
<linearGradient id="paint0_linear_367_209" x1="38" y1="17.4375" x2="38" y2="38" gradientUnits="userSpaceOnUse">
<stop stop-color="#007EA8"/>
<stop offset="1" stop-color="#00AF6F"/>
</linearGradient>
<linearGradient id="paint1_linear_367_209" x1="38" y1="40.9375" x2="38" y2="58.5625" gradientUnits="userSpaceOnUse">
<stop stop-color="#007EA8"/>
<stop offset="1" stop-color="#00AF6F"/>
</linearGradient>
<linearGradient id="paint2_linear_367_209" x1="38" y1="0" x2="38" y2="76" gradientUnits="userSpaceOnUse">
<stop stop-color="#0680AA"/>
<stop offset="1" stop-color="#00AB73"/>
</linearGradient>
</defs>
</svg>
