<svg
            width="26"
            height="24"
            viewBox="0 0 26 24"
            fill="none"
            xmlns="http://www.w3.org/2000/svg"
          >
            <path
              d="M22.6967 9V20.993C22.6977 21.1243 22.6709 21.2545 22.6179 21.3762C22.5649 21.4979 22.4867 21.6087 22.3878 21.7022C22.2889 21.7957 22.1711 21.8701 22.0413 21.9212C21.9116 21.9723 21.7722 21.9991 21.6313 22H4.45014C4.16777 22 3.89695 21.8955 3.69719 21.7095C3.49742 21.5235 3.38505 21.2712 3.38477 21.008V2.992C3.38477 2.455 3.86435 2 4.45551 2H15.1865V8C15.1865 8.26522 15.2996 8.51957 15.5008 8.70711C15.702 8.89464 15.9749 9 16.2594 9H22.6967ZM22.6967 7H17.3323V2.003L22.6967 7ZM8.7492 7V9H11.9679V7H8.7492ZM8.7492 11V13H17.3323V11H8.7492ZM8.7492 15V17H17.3323V15H8.7492Z"
              fill="white"
            />
          </svg>