<svg width="128" height="84" viewBox="0 0 128 84" fill="none" xmlns="http://www.w3.org/2000/svg">
<path d="M64 0C28.1123 0 0 9.07073 0 20.6486V82.0886C0 92.9839 24.895 101.655 57.7351 102.642C57.7432 102.642 57.7504 102.647 57.7585 102.647C57.7646 102.647 57.7707 102.644 57.7768 102.643C59.8227 102.704 61.8971 102.737 64 102.737C66.11 102.737 68.1895 102.703 70.2415 102.642C103.093 101.66 128 92.9869 128 82.0897V20.6497C128 9.07073 99.8877 0 64 0ZM64 2.03175C97.5898 2.03175 125.968 10.558 125.968 20.6486C125.968 30.7413 97.5898 39.2665 64 39.2665C30.4102 39.2665 2.03175 30.7413 2.03175 20.6486C2.03175 10.558 30.4102 2.03175 64 2.03175ZM58.7744 100.632V89.6671C58.7744 86.786 61.119 84.4414 64 84.4414C66.881 84.4414 69.2257 86.786 69.2257 89.6671V100.632C67.4987 100.678 65.7585 100.707 64 100.707C62.2415 100.707 60.5013 100.678 58.7744 100.632ZM125.968 82.0897C125.968 91.4448 101.577 99.4489 71.2574 100.568V89.6671C71.2574 85.6655 68.0015 82.4097 64 82.4097C59.9985 82.4097 56.7426 85.6645 56.7426 89.6671V100.568C26.4229 99.4479 2.03175 91.4438 2.03175 82.0897V63.8761C8.59022 72.1879 30.3949 78.3269 57.7026 79.1507C57.7239 79.1517 57.7422 79.1629 57.7636 79.1629C57.7808 79.1629 57.7951 79.1538 57.8123 79.1528C59.8471 79.2127 61.9083 79.2472 64 79.2472C66.0917 79.2472 68.1529 79.2137 70.1877 79.1528C70.205 79.1538 70.2192 79.1629 70.2365 79.1629C70.2578 79.1629 70.2761 79.1517 70.2974 79.1507C97.6051 78.3279 119.41 72.1879 125.968 63.8761V82.0897ZM16.4673 70.3898C11.9203 68.7492 8.27733 66.879 5.78641 64.8584V63.0095C5.78641 60.0655 8.18184 57.6691 11.1269 57.6691C14.0719 57.6691 16.4673 60.0645 16.4673 63.0095V70.3898ZM35.3148 75.0202C30.7911 74.2888 26.5813 73.3958 22.784 72.3647V68.8528C22.784 65.3978 25.5949 62.5869 29.0489 62.5869C32.5029 62.5869 35.3138 65.3978 35.3138 68.8528L35.3148 75.0202ZM56.7477 77.0773C52.4323 76.9178 48.2387 76.6192 44.2169 76.1966V71.934C44.2169 68.48 47.0278 65.6691 50.4818 65.6691C53.9357 65.6691 56.7467 68.48 56.7467 71.934L56.7477 77.0773ZM83.7831 76.1976C79.7613 76.6202 75.5677 76.9189 71.2523 77.0784V71.935C71.2523 68.481 74.0632 65.6701 77.5172 65.6701C80.9712 65.6701 83.7821 68.481 83.7821 71.935L83.7831 76.1976ZM105.216 72.3647C101.419 73.3958 97.2089 74.2888 92.6852 75.0202V68.8528C92.6852 65.3978 95.4961 62.5869 98.9501 62.5869C102.404 62.5869 105.215 65.3978 105.215 68.8528L105.216 72.3647ZM122.213 64.8584C119.723 66.88 116.079 68.7492 111.532 70.3898V63.0085C111.532 60.0645 113.927 57.6681 116.872 57.6681C119.817 57.6681 122.213 60.0635 122.213 63.0085V64.8584ZM125.968 58.5996C125.968 60.0604 125.357 61.4867 124.237 62.8612C124.157 58.8658 120.888 55.6373 116.873 55.6373C112.809 55.6373 109.501 58.945 109.501 63.0095V71.0888C108.771 71.3275 108.018 71.5611 107.248 71.7887V68.8549C107.248 64.2794 103.526 60.5572 98.9511 60.5572C94.3766 60.5572 90.6545 64.2794 90.6545 68.8549V75.3392C89.0768 75.5718 87.4596 75.7821 85.8159 75.9741V71.936C85.8159 67.3615 82.0937 63.6394 77.5192 63.6394C72.9448 63.6394 69.2226 67.3615 69.2226 71.936V77.1434C67.4956 77.1881 65.7564 77.2165 64 77.2165C62.2436 77.2165 60.5044 77.1881 58.7794 77.1423V71.935C58.7794 67.3605 55.0573 63.6384 50.4828 63.6384C45.9083 63.6384 42.1862 67.3605 42.1862 71.935V75.9731C40.5425 75.7811 38.9242 75.5708 37.3476 75.3382V68.8538C37.3476 64.2784 33.6254 60.5562 29.0509 60.5562C24.4764 60.5562 20.7543 64.2784 20.7543 68.8538V71.7877C19.9853 71.5601 19.2315 71.3275 18.5011 71.0877V63.0085C18.5011 58.944 15.1944 55.6363 11.1289 55.6363C7.11416 55.6363 3.84406 58.8648 3.76483 62.8602C2.6433 61.4867 2.03175 60.0604 2.03175 58.5996V44.287C8.59022 52.5989 30.3949 58.7378 57.7026 59.5617C57.7239 59.5627 57.7422 59.5738 57.7636 59.5738C57.7808 59.5738 57.7951 59.5647 57.8123 59.5637C59.8471 59.6236 61.9083 59.6582 64 59.6582C66.0917 59.6582 68.1529 59.6246 70.1877 59.5637C70.205 59.5647 70.2192 59.5738 70.2365 59.5738C70.2578 59.5738 70.2761 59.5627 70.2974 59.5617C97.6051 58.7378 119.41 52.5989 125.968 44.287V58.5996ZM16.4673 50.8008C11.9203 49.1601 8.27733 47.2899 5.78641 45.2693V43.4204C5.78641 40.4764 8.18184 38.08 11.1269 38.08C14.0719 38.08 16.4673 40.4754 16.4673 43.4204V50.8008ZM35.3148 55.4311C30.7911 54.6997 26.5813 53.8067 22.784 52.7756V49.2637C22.784 45.8098 25.5949 42.9989 29.0489 42.9989C32.5029 42.9989 35.3138 45.8098 35.3138 49.2637L35.3148 55.4311ZM56.7477 57.4883C52.4323 57.3288 48.2387 57.0301 44.2169 56.6075V52.3459C44.2169 48.8909 47.0278 46.08 50.4818 46.08C53.9357 46.08 56.7467 48.8909 56.7467 52.3459L56.7477 57.4883ZM83.7831 56.6085C79.7613 57.0311 75.5677 57.3298 71.2523 57.4893V52.3469C71.2523 48.8919 74.0632 46.081 77.5172 46.081C80.9712 46.081 83.7821 48.8919 83.7821 52.3469L83.7831 56.6085ZM105.216 52.7756C101.419 53.8067 97.2089 54.6997 92.6852 55.4311V49.2637C92.6852 45.8098 95.4961 42.9989 98.9501 42.9989C102.404 42.9989 105.215 45.8098 105.215 49.2637L105.216 52.7756ZM122.213 45.2693C119.723 47.2909 116.079 49.1601 111.532 50.8008V43.4194C111.532 40.4754 113.927 38.079 116.872 38.079C119.817 38.079 122.213 40.4744 122.213 43.4194V45.2693ZM125.968 39.0095C125.968 40.4704 125.357 41.8966 124.237 43.2711C124.157 39.2757 120.888 36.0472 116.873 36.0472C112.809 36.0472 109.501 39.3549 109.501 43.4194V51.4987C108.771 51.7374 108.018 51.9711 107.248 52.1986V49.2648C107.248 44.6903 103.526 40.9681 98.9511 40.9681C94.3766 40.9681 90.6545 44.6903 90.6545 49.2648V55.7491C89.0768 55.9817 87.4596 56.192 85.8159 56.384V52.3469C85.8159 47.7714 82.0937 44.0493 77.5192 44.0493C72.9448 44.0493 69.2226 47.7714 69.2226 52.3469V57.5533C67.4977 57.599 65.7595 57.6274 64.002 57.6274C62.2446 57.6274 60.5064 57.599 58.7815 57.5533V52.3469C58.7815 47.7714 55.0593 44.0493 50.4848 44.0493C45.9104 44.0493 42.1882 47.7714 42.1882 52.3469V56.384C40.5445 56.192 38.9262 55.9817 37.3496 55.7491V49.2648C37.3496 44.6903 33.6274 40.9681 29.053 40.9681C24.4785 40.9681 20.7563 44.6903 20.7563 49.2648V52.1986C19.9873 51.9711 19.2335 51.7384 18.5031 51.4987V43.4194C18.5031 39.3549 15.1964 36.0472 11.1309 36.0472C7.11619 36.0472 3.8461 39.2757 3.76686 43.2711C2.6433 41.8977 2.03175 40.4714 2.03175 39.0095V25.9261C9.088 34.8688 33.7859 41.2983 64 41.2983C94.2141 41.2983 118.912 34.8688 125.968 25.9261V39.0095Z" fill="url(#paint0_linear_568_8271)"/>
<path d="M32.8394 34.2391C33.005 34.3133 33.1787 34.3468 33.3554 34.3275C42.6629 35.9041 53.3976 36.7453 64.0003 36.7453C74.6121 36.7453 85.357 35.9031 94.6705 34.3234C94.6989 34.3255 94.7243 34.3407 94.7528 34.3407C94.898 34.3407 95.0392 34.2991 95.1744 34.2361C110.637 31.5542 122.025 26.8182 122.025 20.5035C122.025 10.3366 92.5219 4.26172 64.0003 4.26172C35.4786 4.26172 5.97461 10.3366 5.97461 20.5035C5.97461 26.8202 17.3697 31.5572 32.8394 34.2391ZM35.5568 32.7021C40.367 29.5011 51.6513 27.2905 63.9992 27.2905C76.3472 27.2905 87.6315 29.5011 92.4417 32.7021C84.3421 33.9547 74.7401 34.7135 63.9992 34.7135C53.2584 34.7135 43.6574 33.9547 35.5568 32.7021ZM63.9992 6.29245C97.4926 6.29245 119.992 13.6392 119.992 20.5025C119.992 24.9175 110.67 29.5295 95.1114 32.2602C90.8234 28.0585 78.4988 25.2588 63.9992 25.2588C49.4997 25.2588 37.1751 28.0575 32.8871 32.2612C17.328 29.5305 8.00636 24.9185 8.00636 20.5035C8.00636 13.6403 30.5059 6.29245 63.9992 6.29245Z" fill="#21919B"/>
<path d="M74.417 24.1529C74.48 24.16 74.5419 24.164 74.6029 24.164C75.6299 24.164 76.3918 23.0892 77.679 18.016C78.4043 15.1573 78.9854 12.1656 79.0605 11.49C79.2556 9.7234 77.9766 8.12645 76.209 7.9314C74.4353 7.73839 72.8434 9.01534 72.6484 10.784C72.6341 10.913 71.6528 23.8481 74.417 24.1529ZM74.6679 11.0054C74.735 10.3959 75.2531 9.94283 75.8534 9.94283C75.8971 9.94283 75.9408 9.94588 75.9855 9.95096C76.6397 10.0231 77.1131 10.6133 77.041 11.2685C76.9069 12.4896 75.7315 17.9032 74.799 20.6969C74.4983 17.7671 74.5328 12.2275 74.6679 11.0054Z" fill="#21919B"/>
<path d="M89.493 27.2175C89.618 27.2683 89.747 27.2917 89.874 27.2917C90.2438 27.2917 90.5973 27.0895 90.7771 26.7421C92.3263 23.7433 95.6868 20.7231 97.9095 18.7238C99.3439 17.4347 100.107 16.7358 100.44 16.1709C101.286 14.7325 101.175 12.5758 99.5207 11.4563C98.2082 10.5674 96.0678 10.5105 93.9964 13.0187C92.1699 15.2323 89.2309 24.8881 88.9018 25.9822C88.7504 26.4861 89.0064 27.0215 89.493 27.2175ZM95.5619 14.3139C96.0535 13.7186 97.3132 12.4153 98.3809 13.1406C99.0372 13.5855 99.0514 14.5242 98.6887 15.1408C98.4998 15.4619 97.4646 16.3924 96.5513 17.2142C95.4349 18.2179 94.0441 19.4685 92.7103 20.8633C93.7485 17.9142 94.8518 15.1754 95.5619 14.3139Z" fill="#21919B"/>
<path d="M50.3211 18.017C51.6083 23.0902 52.3712 24.165 53.3972 24.165C53.4582 24.165 53.5201 24.161 53.5831 24.1539C56.3483 23.8481 55.367 10.914 55.3528 10.784C55.1577 9.01634 53.5526 7.73838 51.7921 7.93139C50.0245 8.12644 48.7445 9.72441 48.9396 11.491C49.0147 12.1676 49.5948 15.1583 50.3211 18.017ZM52.0146 9.95196C52.0583 9.94688 52.103 9.94384 52.1467 9.94384C52.7471 9.94384 53.2651 10.3969 53.3322 11.0064C53.4673 12.2285 53.5018 17.7681 53.2011 20.6979C52.2686 17.9042 51.0942 12.4906 50.9591 11.2696C50.887 10.6143 51.3604 10.0241 52.0146 9.95196Z" fill="#21919B"/>
<path d="M30.0903 18.726C32.3131 20.7252 35.6736 23.7444 37.2228 26.7443C37.4016 27.0917 37.7551 27.2939 38.1259 27.2939C38.2529 27.2939 38.3819 27.2705 38.5068 27.2197C38.9934 27.0236 39.2494 26.4883 39.0991 25.9854C38.77 24.8913 35.832 15.2355 34.0045 13.0219C31.9331 10.5147 29.7927 10.5716 28.4802 11.4595C26.8263 12.5789 26.7136 14.7356 27.5608 16.1741C27.893 16.7379 28.6559 17.4369 30.0903 18.726ZM29.619 13.1417C29.8414 12.9914 30.071 12.9274 30.3016 12.9274C31.1783 12.9274 32.0479 13.8437 32.438 14.3151C33.1481 15.1765 34.2524 17.9153 35.2906 20.8634C33.9567 19.4686 32.566 18.2181 31.4496 17.2144C30.5363 16.3925 29.5011 15.462 29.3122 15.141C28.9485 14.5254 28.9627 13.5857 29.619 13.1417Z" fill="#21919B"/>
<defs>
<linearGradient id="paint0_linear_568_8271" x1="64" y1="0" x2="64" y2="102.737" gradientUnits="userSpaceOnUse">
<stop stop-color="#1A9F94"/>
<stop offset="1" stop-color="#306CB3"/>
</linearGradient>
</defs>
</svg>
